M48
; DRILL file {KiCad 6.0.11+dfsg-1} date Wed Aug 12 10:57:17 2026
; FORMAT={-:-/ absolute / metric / decimal}
; #@! TF.CreationDate,2026-08-12T10:57:17+01:00
; #@! TF.GenerationSoftware,Kicad,Pcbnew,6.0.11+dfsg-1
; #@! TF.FileFunction,Plated,1,2,PTH
FMAT,2
METRIC
; #@! TA.AperFunction,Plated,PTH,ViaDrill
T1C30.000
; #@! TA.AperFunction,Plated,PTH,ComponentDrill
T2C90.000
; #@! TA.AperFunction,Plated,PTH,ComponentDrill
T3C100.000
; #@! TA.AperFunction,Plated,PTH,ComponentDrill
T4C160.000
; #@! TA.AperFunction,Plated,PTH,ComponentDrill
T5C170.000
; #@! TA.AperFunction,Plated,PTH,ComponentDrill
T6C320.000
%
G90
G05
T1
X350.0Y-350.0
X350.0Y-9650.0
X1200.0Y-2105.0
X1200.0Y-4705.0
X1295.0Y-800.0
X1295.0Y-3400.0
X1308.0Y-8800.0
X1340.0Y-1400.0
X1340.0Y-4000.0
X1550.0Y-6200.0
X1930.0Y-7790.5
X2105.0Y-7000.0
X2295.0Y-7000.0
X2340.0Y-1400.0
X2340.0Y-4000.0
X2410.0Y-6400.0
X2850.0Y-6200.0
X3105.0Y-2200.0
X3105.0Y-4800.0
X3705.0Y-2200.0
X3705.0Y-4800.0
X3800.0Y-800.0
X5200.0Y-2070.0
X5200.0Y-2324.0
X5200.0Y-2578.0
X5200.0Y-3086.0
X5200.0Y-3848.0
X5200.0Y-4102.0
X5308.0Y-8800.0
X5495.0Y-6200.0
X5540.0Y-6600.0
X5600.0Y-2070.0
X5600.0Y-8800.0
X5890.0Y-6232.5
X5890.0Y-6297.5
X5890.0Y-6427.5
X5890.0Y-6492.5
X5900.0Y-1308.0
X5900.0Y-3848.0
X6724.0Y-1308.0
X6724.0Y-1562.0
X6724.0Y-2070.0
X6724.0Y-2324.0
X6724.0Y-2578.0
X6724.0Y-2832.0
X6724.0Y-4102.0
X6724.0Y-4356.0
X7200.0Y-2324.0
X7200.0Y-2578.0
X7200.0Y-6000.0
X7200.0Y-6232.5
X7200.0Y-6297.5
X7200.0Y-6400.0
X7295.0Y-6000.0
X7295.0Y-6400.0
X7400.0Y-4356.0
X7400.0Y-8000.0
X7500.0Y-4102.0
X7500.0Y-8000.0
X8050.0Y-8000.0
X8050.0Y-8800.0
X8300.0Y-8000.0
X8300.0Y-8800.0
X8550.0Y-8000.0
X10000.0Y-6978.0
X10500.0Y-4800.0
X10500.0Y-9100.0
X10508.0Y-8800.0
X11800.0Y-1054.0
X11800.0Y-1054.0
X11800.0Y-1308.0
X11800.0Y-1308.0
X11800.0Y-1562.0
X11800.0Y-2070.0
X11800.0Y-2324.0
X11800.0Y-2578.0
X11800.0Y-2832.0
X11800.0Y-3086.0
X12200.0Y-800.0
X12200.0Y-1054.0
X12200.0Y-1308.0
X12200.0Y-1562.0
X12454.0Y-1054.0
X12454.0Y-1308.0
X14650.0Y-350.0
X14650.0Y-9650.0
X14800.0Y-4800.0
X14800.0Y-9100.0
T2
X7800.0Y-8000.0
X7800.0Y-8800.0
X8050.0Y-8000.0
X8050.0Y-8800.0
X8300.0Y-8000.0
X8300.0Y-8800.0
X8550.0Y-8000.0
X8550.0Y-8800.0
T3
X1550.0Y-5400.0
X1550.0Y-6200.0
X2850.0Y-5400.0
X2850.0Y-6200.0
X3200.0Y-8800.0
X3800.0Y-800.0
X3800.0Y-1400.0
X3800.0Y-4000.0
X5200.0Y-800.0
X5200.0Y-1054.0
X5200.0Y-1308.0
X5200.0Y-1562.0
X5200.0Y-1816.0
X5200.0Y-2070.0
X5200.0Y-2324.0
X5200.0Y-2578.0
X5200.0Y-2832.0
X5200.0Y-3086.0
X5200.0Y-3340.0
X5200.0Y-3594.0
X5200.0Y-3848.0
X5200.0Y-4102.0
X5200.0Y-4356.0
X6724.0Y-800.0
X6724.0Y-1054.0
X6724.0Y-1308.0
X6724.0Y-1562.0
X6724.0Y-1816.0
X6724.0Y-2070.0
X6724.0Y-2324.0
X6724.0Y-2578.0
X6724.0Y-2832.0
X6724.0Y-3086.0
X6724.0Y-3340.0
X6724.0Y-3594.0
X6724.0Y-3848.0
X6724.0Y-4102.0
X6724.0Y-4356.0
X10000.0Y-5200.0
X10000.0Y-5454.0
X10000.0Y-5708.0
X10000.0Y-5962.0
X10000.0Y-6216.0
X10000.0Y-6470.0
X10000.0Y-6724.0
X10000.0Y-6978.0
X12200.0Y-800.0
X12200.0Y-1054.0
X12200.0Y-1308.0
X12200.0Y-1562.0
X12454.0Y-800.0
X12454.0Y-1054.0
X12454.0Y-1308.0
X12454.0Y-1562.0
T4
X1200.0Y-8800.0
X3200.0Y-8800.0
T5
X800.0Y-8800.0
X1308.0Y-8800.0
X4800.0Y-8800.0
X5308.0Y-8800.0
X5816.0Y-8800.0
X6324.0Y-8800.0
X10000.0Y-8800.0
X10508.0Y-8800.0
X11200.0Y-8800.0
X11708.0Y-8800.0
T6
X350.0Y-350.0
X350.0Y-9650.0
X10500.0Y-4800.0
X10500.0Y-9100.0
X14650.0Y-350.0
X14650.0Y-9650.0
X14800.0Y-4800.0
X14800.0Y-9100.0
T0
M30
