%TF.GenerationSoftware,KiCad,Pcbnew,6.0.11+dfsg-1*%
%TF.CreationDate,2026-08-12T10:57:17+01:00*%
%TF.ProjectId,wifeeder-actuator,77696665-6564-4657-922d-616374756174,1*%
%TF.SameCoordinates,Original*%
%TF.FileFunction,Soldermask,Bot*%
%TF.FilePolarity,Negative*%
%FSLAX46Y46*%
G04 Gerber Fmt 4.6, Leading zero omitted, Abs format (unit mm)*
G04 Created by KiCad (PCBNEW 6.0.11+dfsg-1) date 2026-08-12 10:57:17*
%MOMM*%
%LPD*%
G01*
G04 APERTURE LIST*
G04 Aperture macros list*
%AMRoundRect*
0 Rectangle with rounded corners*
0 $1 Rounding radius*
0 $2 $3 $4 $5 $6 $7 $8 $9 X,Y pos of 4 corners*
0 Add a 4 corners polygon primitive as box body*
4,1,4,$2,$3,$4,$5,$6,$7,$8,$9,$2,$3,0*
0 Add four circle primitives for the rounded corners*
1,1,$1+$1,$2,$3*
1,1,$1+$1,$4,$5*
1,1,$1+$1,$6,$7*
1,1,$1+$1,$8,$9*
0 Add four rect primitives between the rounded corners*
20,1,$1+$1,$2,$3,$4,$5,0*
20,1,$1+$1,$4,$5,$6,$7,0*
20,1,$1+$1,$6,$7,$8,$9,0*
20,1,$1+$1,$8,$9,$2,$3,0*%
G04 Aperture macros list end*
%ADD10RoundRect,0.050000X-0.900000X-0.900000X0.900000X-0.900000X0.900000X0.900000X-0.900000X0.900000X0*%
%ADD11C,6.300000*%
%ADD12RoundRect,0.050000X-1.600000X-1.600000X1.600000X-1.600000X1.600000X1.600000X-1.600000X1.600000X0*%
%ADD13C,3.300000*%
%ADD14RoundRect,0.050000X-0.850000X-0.850000X0.850000X-0.850000X0.850000X0.850000X-0.850000X0.850000X0*%
%ADD15C,1.800000*%
%ADD16RoundRect,0.050000X-1.500000X-1.500000X1.500000X-1.500000X1.500000X1.500000X-1.500000X1.500000X0*%
%ADD17C,3.100000*%
%ADD18RoundRect,0.050000X-1.000000X-1.000000X1.000000X-1.000000X1.000000X1.000000X-1.000000X1.000000X0*%
%ADD19C,2.100000*%
G04 APERTURE END LIST*
D10*
%TO.C,TP3*%
X38000000Y-14000000D03*
%TD*%
D11*
%TO.C,H6*%
X148000000Y-48000000D03*
%TD*%
D10*
%TO.C,TP2*%
X38000000Y-40000000D03*
%TD*%
%TO.C,TP4*%
X38000000Y-8000000D03*
%TD*%
D12*
%TO.C,TB4*%
X48000000Y-88000000D03*
D13*
X53080000Y-88000000D03*
X58160000Y-88000000D03*
X63240000Y-88000000D03*
%TD*%
D12*
%TO.C,TB1*%
X8000000Y-88000000D03*
D13*
X13080000Y-88000000D03*
%TD*%
D14*
%TO.C,J_NUC_L*%
X52000000Y-8000000D03*
D15*
X52000000Y-10540000D03*
X52000000Y-13080000D03*
X52000000Y-15620000D03*
X52000000Y-18160000D03*
X52000000Y-20700000D03*
X52000000Y-23240000D03*
X52000000Y-25780000D03*
X52000000Y-28320000D03*
X52000000Y-30860000D03*
X52000000Y-33400000D03*
X52000000Y-35940000D03*
X52000000Y-38480000D03*
X52000000Y-41020000D03*
X52000000Y-43560000D03*
%TD*%
D11*
%TO.C,H8*%
X148000000Y-91000000D03*
%TD*%
D14*
%TO.C,J_NUC_R*%
X67240000Y-8000000D03*
D15*
X67240000Y-10540000D03*
X67240000Y-13080000D03*
X67240000Y-15620000D03*
X67240000Y-18160000D03*
X67240000Y-20700000D03*
X67240000Y-23240000D03*
X67240000Y-25780000D03*
X67240000Y-28320000D03*
X67240000Y-30860000D03*
X67240000Y-33400000D03*
X67240000Y-35940000D03*
X67240000Y-38480000D03*
X67240000Y-41020000D03*
X67240000Y-43560000D03*
%TD*%
D11*
%TO.C,H7*%
X105000000Y-91000000D03*
%TD*%
D12*
%TO.C,TB2*%
X100000000Y-88000000D03*
D13*
X105080000Y-88000000D03*
%TD*%
D12*
%TO.C,TB3*%
X112000000Y-88000000D03*
D13*
X117080000Y-88000000D03*
%TD*%
D14*
%TO.C,J_NRF*%
X122000000Y-8000000D03*
D15*
X124540000Y-8000000D03*
X122000000Y-10540000D03*
X124540000Y-10540000D03*
X122000000Y-13080000D03*
X124540000Y-13080000D03*
X122000000Y-15620000D03*
X124540000Y-15620000D03*
%TD*%
D11*
%TO.C,H5*%
X105000000Y-48000000D03*
%TD*%
D16*
%TO.C,F1*%
X12000000Y-88000000D03*
D17*
X32000000Y-88000000D03*
%TD*%
D11*
%TO.C,H2*%
X146500000Y-3500000D03*
%TD*%
%TO.C,H1*%
X3500000Y-3500000D03*
%TD*%
D14*
%TO.C,J_RFID*%
X78000000Y-88000000D03*
D15*
X80500000Y-88000000D03*
X83000000Y-88000000D03*
X85500000Y-88000000D03*
%TD*%
D11*
%TO.C,H4*%
X146500000Y-96500000D03*
%TD*%
D18*
%TO.C,J_MINI*%
X15500000Y-54000000D03*
D19*
X15500000Y-62000000D03*
X28500000Y-54000000D03*
X28500000Y-62000000D03*
%TD*%
D11*
%TO.C,H3*%
X3500000Y-96500000D03*
%TD*%
D14*
%TO.C,J_HX711*%
X78000000Y-80000000D03*
D15*
X80500000Y-80000000D03*
X83000000Y-80000000D03*
X85500000Y-80000000D03*
%TD*%
D14*
%TO.C,J_IBT*%
X100000000Y-52000000D03*
D15*
X100000000Y-54540000D03*
X100000000Y-57080000D03*
X100000000Y-59620000D03*
X100000000Y-62160000D03*
X100000000Y-64700000D03*
X100000000Y-67240000D03*
X100000000Y-69780000D03*
%TD*%
D10*
%TO.C,TP1*%
X32000000Y-88000000D03*
%TD*%
M02*
