%TF.GenerationSoftware,KiCad,Pcbnew,6.0.11+dfsg-1*%
%TF.CreationDate,2026-08-12T10:57:17+01:00*%
%TF.ProjectId,wifeeder-actuator,77696665-6564-4657-922d-616374756174,1*%
%TF.SameCoordinates,Original*%
%TF.FileFunction,Legend,Top*%
%TF.FilePolarity,Positive*%
%FSLAX46Y46*%
G04 Gerber Fmt 4.6, Leading zero omitted, Abs format (unit mm)*
G04 Created by KiCad (PCBNEW 6.0.11+dfsg-1) date 2026-08-12 10:57:17*
%MOMM*%
%LPD*%
G01*
G04 APERTURE LIST*
%ADD10C,0.180000*%
%ADD11C,0.120000*%
%ADD12C,0.300000*%
%ADD13C,0.350000*%
G04 APERTURE END LIST*
D10*
X98402714Y-46542857D02*
X98402714Y-45342857D01*
X99374142Y-45914285D02*
X99545571Y-45971428D01*
X99602714Y-46028571D01*
X99659857Y-46142857D01*
X99659857Y-46314285D01*
X99602714Y-46428571D01*
X99545571Y-46485714D01*
X99431285Y-46542857D01*
X98974142Y-46542857D01*
X98974142Y-45342857D01*
X99374142Y-45342857D01*
X99488428Y-45400000D01*
X99545571Y-45457142D01*
X99602714Y-45571428D01*
X99602714Y-45685714D01*
X99545571Y-45800000D01*
X99488428Y-45857142D01*
X99374142Y-45914285D01*
X98974142Y-45914285D01*
X100002714Y-45342857D02*
X100688428Y-45342857D01*
X100345571Y-46542857D02*
X100345571Y-45342857D01*
X101088428Y-46085714D02*
X102002714Y-46085714D01*
X102517000Y-45457142D02*
X102574142Y-45400000D01*
X102688428Y-45342857D01*
X102974142Y-45342857D01*
X103088428Y-45400000D01*
X103145571Y-45457142D01*
X103202714Y-45571428D01*
X103202714Y-45685714D01*
X103145571Y-45857142D01*
X102459857Y-46542857D01*
X103202714Y-46542857D01*
X105202714Y-45342857D02*
X104631285Y-45342857D01*
X104574142Y-45914285D01*
X104631285Y-45857142D01*
X104745571Y-45800000D01*
X105031285Y-45800000D01*
X105145571Y-45857142D01*
X105202714Y-45914285D01*
X105259857Y-46028571D01*
X105259857Y-46314285D01*
X105202714Y-46428571D01*
X105145571Y-46485714D01*
X105031285Y-46542857D01*
X104745571Y-46542857D01*
X104631285Y-46485714D01*
X104574142Y-46428571D01*
X106002714Y-45342857D02*
X106117000Y-45342857D01*
X106231285Y-45400000D01*
X106288428Y-45457142D01*
X106345571Y-45571428D01*
X106402714Y-45800000D01*
X106402714Y-46085714D01*
X106345571Y-46314285D01*
X106288428Y-46428571D01*
X106231285Y-46485714D01*
X106117000Y-46542857D01*
X106002714Y-46542857D01*
X105888428Y-46485714D01*
X105831285Y-46428571D01*
X105774142Y-46314285D01*
X105717000Y-46085714D01*
X105717000Y-45800000D01*
X105774142Y-45571428D01*
X105831285Y-45457142D01*
X105888428Y-45400000D01*
X106002714Y-45342857D01*
X106802714Y-46542857D02*
X107431285Y-45742857D01*
X106802714Y-45742857D02*
X107431285Y-46542857D01*
X108459857Y-45342857D02*
X107888428Y-45342857D01*
X107831285Y-45914285D01*
X107888428Y-45857142D01*
X108002714Y-45800000D01*
X108288428Y-45800000D01*
X108402714Y-45857142D01*
X108459857Y-45914285D01*
X108517000Y-46028571D01*
X108517000Y-46314285D01*
X108459857Y-46428571D01*
X108402714Y-46485714D01*
X108288428Y-46542857D01*
X108002714Y-46542857D01*
X107888428Y-46485714D01*
X107831285Y-46428571D01*
X109259857Y-45342857D02*
X109374142Y-45342857D01*
X109488428Y-45400000D01*
X109545571Y-45457142D01*
X109602714Y-45571428D01*
X109659857Y-45800000D01*
X109659857Y-46085714D01*
X109602714Y-46314285D01*
X109545571Y-46428571D01*
X109488428Y-46485714D01*
X109374142Y-46542857D01*
X109259857Y-46542857D01*
X109145571Y-46485714D01*
X109088428Y-46428571D01*
X109031285Y-46314285D01*
X108974142Y-46085714D01*
X108974142Y-45800000D01*
X109031285Y-45571428D01*
X109088428Y-45457142D01*
X109145571Y-45400000D01*
X109259857Y-45342857D01*
X111088428Y-46542857D02*
X111088428Y-45342857D01*
X111202714Y-46085714D02*
X111545571Y-46542857D01*
X111545571Y-45742857D02*
X111088428Y-46200000D01*
X112517000Y-46485714D02*
X112402714Y-46542857D01*
X112174142Y-46542857D01*
X112059857Y-46485714D01*
X112002714Y-46371428D01*
X112002714Y-45914285D01*
X112059857Y-45800000D01*
X112174142Y-45742857D01*
X112402714Y-45742857D01*
X112517000Y-45800000D01*
X112574142Y-45914285D01*
X112574142Y-46028571D01*
X112002714Y-46142857D01*
X113545571Y-46485714D02*
X113431285Y-46542857D01*
X113202714Y-46542857D01*
X113088428Y-46485714D01*
X113031285Y-46371428D01*
X113031285Y-45914285D01*
X113088428Y-45800000D01*
X113202714Y-45742857D01*
X113431285Y-45742857D01*
X113545571Y-45800000D01*
X113602714Y-45914285D01*
X113602714Y-46028571D01*
X113031285Y-46142857D01*
X114117000Y-45742857D02*
X114117000Y-46942857D01*
X114117000Y-45800000D02*
X114231285Y-45742857D01*
X114459857Y-45742857D01*
X114574142Y-45800000D01*
X114631285Y-45857142D01*
X114688428Y-45971428D01*
X114688428Y-46314285D01*
X114631285Y-46428571D01*
X114574142Y-46485714D01*
X114459857Y-46542857D01*
X114231285Y-46542857D01*
X114117000Y-46485714D01*
X115374142Y-46542857D02*
X115259857Y-46485714D01*
X115202714Y-46428571D01*
X115145571Y-46314285D01*
X115145571Y-45971428D01*
X115202714Y-45857142D01*
X115259857Y-45800000D01*
X115374142Y-45742857D01*
X115545571Y-45742857D01*
X115659857Y-45800000D01*
X115717000Y-45857142D01*
X115774142Y-45971428D01*
X115774142Y-46314285D01*
X115717000Y-46428571D01*
X115659857Y-46485714D01*
X115545571Y-46542857D01*
X115374142Y-46542857D01*
X116802714Y-45742857D02*
X116802714Y-46542857D01*
X116288428Y-45742857D02*
X116288428Y-46371428D01*
X116345571Y-46485714D01*
X116459857Y-46542857D01*
X116631285Y-46542857D01*
X116745571Y-46485714D01*
X116802714Y-46428571D01*
X117202714Y-45742857D02*
X117659857Y-45742857D01*
X117374142Y-45342857D02*
X117374142Y-46371428D01*
X117431285Y-46485714D01*
X117545571Y-46542857D01*
X117659857Y-46542857D01*
X98802714Y-95914285D02*
X98974142Y-95971428D01*
X99031285Y-96028571D01*
X99088428Y-96142857D01*
X99088428Y-96314285D01*
X99031285Y-96428571D01*
X98974142Y-96485714D01*
X98859857Y-96542857D01*
X98402714Y-96542857D01*
X98402714Y-95342857D01*
X98802714Y-95342857D01*
X98917000Y-95400000D01*
X98974142Y-95457142D01*
X99031285Y-95571428D01*
X99031285Y-95685714D01*
X98974142Y-95800000D01*
X98917000Y-95857142D01*
X98802714Y-95914285D01*
X98402714Y-95914285D01*
X99602714Y-96085714D02*
X100517000Y-96085714D01*
X100059857Y-96542857D02*
X100059857Y-95628571D01*
X102917000Y-96542857D02*
X102917000Y-95342857D01*
X103317000Y-96200000D01*
X103717000Y-95342857D01*
X103717000Y-96542857D01*
X104517000Y-95342857D02*
X104745571Y-95342857D01*
X104859857Y-95400000D01*
X104974142Y-95514285D01*
X105031285Y-95742857D01*
X105031285Y-96142857D01*
X104974142Y-96371428D01*
X104859857Y-96485714D01*
X104745571Y-96542857D01*
X104517000Y-96542857D01*
X104402714Y-96485714D01*
X104288428Y-96371428D01*
X104231285Y-96142857D01*
X104231285Y-95742857D01*
X104288428Y-95514285D01*
X104402714Y-95400000D01*
X104517000Y-95342857D01*
X105374142Y-95342857D02*
X106059857Y-95342857D01*
X105717000Y-96542857D02*
X105717000Y-95342857D01*
X77088428Y-96542857D02*
X76688428Y-95971428D01*
X76402714Y-96542857D02*
X76402714Y-95342857D01*
X76859857Y-95342857D01*
X76974142Y-95400000D01*
X77031285Y-95457142D01*
X77088428Y-95571428D01*
X77088428Y-95742857D01*
X77031285Y-95857142D01*
X76974142Y-95914285D01*
X76859857Y-95971428D01*
X76402714Y-95971428D01*
X78002714Y-95914285D02*
X77602714Y-95914285D01*
X77602714Y-96542857D02*
X77602714Y-95342857D01*
X78174142Y-95342857D01*
X78631285Y-96542857D02*
X78631285Y-95342857D01*
X79202714Y-96542857D02*
X79202714Y-95342857D01*
X79488428Y-95342857D01*
X79659857Y-95400000D01*
X79774142Y-95514285D01*
X79831285Y-95628571D01*
X79888428Y-95857142D01*
X79888428Y-96028571D01*
X79831285Y-96257142D01*
X79774142Y-96371428D01*
X79659857Y-96485714D01*
X79488428Y-96542857D01*
X79202714Y-96542857D01*
X82174142Y-95285714D02*
X81145571Y-96828571D01*
X83488428Y-96542857D02*
X83488428Y-95342857D01*
X83488428Y-95914285D02*
X84174142Y-95914285D01*
X84174142Y-96542857D02*
X84174142Y-95342857D01*
X84631285Y-95342857D02*
X85431285Y-96542857D01*
X85431285Y-95342857D02*
X84631285Y-96542857D01*
X85774142Y-95342857D02*
X86574142Y-95342857D01*
X86059857Y-96542857D01*
X87659857Y-96542857D02*
X86974142Y-96542857D01*
X87317000Y-96542857D02*
X87317000Y-95342857D01*
X87202714Y-95514285D01*
X87088428Y-95628571D01*
X86974142Y-95685714D01*
X88802714Y-96542857D02*
X88117000Y-96542857D01*
X88459857Y-96542857D02*
X88459857Y-95342857D01*
X88345571Y-95514285D01*
X88231285Y-95628571D01*
X88117000Y-95685714D01*
X90231285Y-96542857D02*
X90231285Y-95342857D01*
X90517000Y-95342857D01*
X90688428Y-95400000D01*
X90802714Y-95514285D01*
X90859857Y-95628571D01*
X90917000Y-95857142D01*
X90917000Y-96028571D01*
X90859857Y-96257142D01*
X90802714Y-96371428D01*
X90688428Y-96485714D01*
X90517000Y-96542857D01*
X90231285Y-96542857D01*
X91431285Y-96542857D02*
X91431285Y-95342857D01*
X92117000Y-96542857D01*
X92117000Y-95342857D01*
X92688428Y-96542857D02*
X92688428Y-95342857D01*
X93145571Y-95342857D01*
X93259857Y-95400000D01*
X93317000Y-95457142D01*
X93374142Y-95571428D01*
X93374142Y-95742857D01*
X93317000Y-95857142D01*
X93259857Y-95914285D01*
X93145571Y-95971428D01*
X92688428Y-95971428D01*
X40402714Y-6542857D02*
X40402714Y-5342857D01*
X41088428Y-6542857D01*
X41088428Y-5342857D01*
X41659857Y-5342857D02*
X41659857Y-6314285D01*
X41717000Y-6428571D01*
X41774142Y-6485714D01*
X41888428Y-6542857D01*
X42117000Y-6542857D01*
X42231285Y-6485714D01*
X42288428Y-6428571D01*
X42345571Y-6314285D01*
X42345571Y-5342857D01*
X43602714Y-6428571D02*
X43545571Y-6485714D01*
X43374142Y-6542857D01*
X43259857Y-6542857D01*
X43088428Y-6485714D01*
X42974142Y-6371428D01*
X42917000Y-6257142D01*
X42859857Y-6028571D01*
X42859857Y-5857142D01*
X42917000Y-5628571D01*
X42974142Y-5514285D01*
X43088428Y-5400000D01*
X43259857Y-5342857D01*
X43374142Y-5342857D01*
X43545571Y-5400000D01*
X43602714Y-5457142D01*
X44688428Y-6542857D02*
X44117000Y-6542857D01*
X44117000Y-5342857D01*
X45088428Y-5914285D02*
X45488428Y-5914285D01*
X45659857Y-6542857D02*
X45088428Y-6542857D01*
X45088428Y-5342857D01*
X45659857Y-5342857D01*
X46402714Y-5342857D02*
X46631285Y-5342857D01*
X46745571Y-5400000D01*
X46859857Y-5514285D01*
X46917000Y-5742857D01*
X46917000Y-6142857D01*
X46859857Y-6371428D01*
X46745571Y-6485714D01*
X46631285Y-6542857D01*
X46402714Y-6542857D01*
X46288428Y-6485714D01*
X46174142Y-6371428D01*
X46117000Y-6142857D01*
X46117000Y-5742857D01*
X46174142Y-5514285D01*
X46288428Y-5400000D01*
X46402714Y-5342857D01*
X48345571Y-5342857D02*
X48345571Y-6314285D01*
X48402714Y-6428571D01*
X48459857Y-6485714D01*
X48574142Y-6542857D01*
X48802714Y-6542857D01*
X48917000Y-6485714D01*
X48974142Y-6428571D01*
X49031285Y-6314285D01*
X49031285Y-5342857D01*
X49545571Y-6485714D02*
X49717000Y-6542857D01*
X50002714Y-6542857D01*
X50117000Y-6485714D01*
X50174142Y-6428571D01*
X50231285Y-6314285D01*
X50231285Y-6200000D01*
X50174142Y-6085714D01*
X50117000Y-6028571D01*
X50002714Y-5971428D01*
X49774142Y-5914285D01*
X49659857Y-5857142D01*
X49602714Y-5800000D01*
X49545571Y-5685714D01*
X49545571Y-5571428D01*
X49602714Y-5457142D01*
X49659857Y-5400000D01*
X49774142Y-5342857D01*
X50059857Y-5342857D01*
X50231285Y-5400000D01*
X51145571Y-5914285D02*
X51317000Y-5971428D01*
X51374142Y-6028571D01*
X51431285Y-6142857D01*
X51431285Y-6314285D01*
X51374142Y-6428571D01*
X51317000Y-6485714D01*
X51202714Y-6542857D01*
X50745571Y-6542857D01*
X50745571Y-5342857D01*
X51145571Y-5342857D01*
X51259857Y-5400000D01*
X51317000Y-5457142D01*
X51374142Y-5571428D01*
X51374142Y-5685714D01*
X51317000Y-5800000D01*
X51259857Y-5857142D01*
X51145571Y-5914285D01*
X50745571Y-5914285D01*
X52859857Y-6085714D02*
X53774142Y-6085714D01*
X53545571Y-6314285D02*
X53774142Y-6085714D01*
X53545571Y-5857142D01*
X4231285Y-94342857D02*
X4917000Y-94342857D01*
X4574142Y-95542857D02*
X4574142Y-94342857D01*
X5717000Y-94914285D02*
X5888428Y-94971428D01*
X5945571Y-95028571D01*
X6002714Y-95142857D01*
X6002714Y-95314285D01*
X5945571Y-95428571D01*
X5888428Y-95485714D01*
X5774142Y-95542857D01*
X5317000Y-95542857D01*
X5317000Y-94342857D01*
X5717000Y-94342857D01*
X5831285Y-94400000D01*
X5888428Y-94457142D01*
X5945571Y-94571428D01*
X5945571Y-94685714D01*
X5888428Y-94800000D01*
X5831285Y-94857142D01*
X5717000Y-94914285D01*
X5317000Y-94914285D01*
X7145571Y-95542857D02*
X6459857Y-95542857D01*
X6802714Y-95542857D02*
X6802714Y-94342857D01*
X6688428Y-94514285D01*
X6574142Y-94628571D01*
X6459857Y-94685714D01*
X9202714Y-95542857D02*
X8517000Y-95542857D01*
X8859857Y-95542857D02*
X8859857Y-94342857D01*
X8745571Y-94514285D01*
X8631285Y-94628571D01*
X8517000Y-94685714D01*
X9659857Y-94457142D02*
X9717000Y-94400000D01*
X9831285Y-94342857D01*
X10117000Y-94342857D01*
X10231285Y-94400000D01*
X10288428Y-94457142D01*
X10345571Y-94571428D01*
X10345571Y-94685714D01*
X10288428Y-94857142D01*
X9602714Y-95542857D01*
X10345571Y-95542857D01*
X10688428Y-94342857D02*
X11088428Y-95542857D01*
X11488428Y-94342857D01*
X12802714Y-95542857D02*
X12802714Y-94342857D01*
X13374142Y-95542857D02*
X13374142Y-94342857D01*
X14059857Y-95542857D01*
X14059857Y-94342857D01*
X48402714Y-95914285D02*
X48802714Y-95914285D01*
X48974142Y-96542857D02*
X48402714Y-96542857D01*
X48402714Y-95342857D01*
X48974142Y-95342857D01*
X49488428Y-96542857D02*
X49488428Y-95342857D01*
X50174142Y-96542857D01*
X50174142Y-95342857D01*
X51431285Y-96428571D02*
X51374142Y-96485714D01*
X51202714Y-96542857D01*
X51088428Y-96542857D01*
X50917000Y-96485714D01*
X50802714Y-96371428D01*
X50745571Y-96257142D01*
X50688428Y-96028571D01*
X50688428Y-95857142D01*
X50745571Y-95628571D01*
X50802714Y-95514285D01*
X50917000Y-95400000D01*
X51088428Y-95342857D01*
X51202714Y-95342857D01*
X51374142Y-95400000D01*
X51431285Y-95457142D01*
X53431285Y-95342857D02*
X52859857Y-95342857D01*
X52802714Y-95914285D01*
X52859857Y-95857142D01*
X52974142Y-95800000D01*
X53259857Y-95800000D01*
X53374142Y-95857142D01*
X53431285Y-95914285D01*
X53488428Y-96028571D01*
X53488428Y-96314285D01*
X53431285Y-96428571D01*
X53374142Y-96485714D01*
X53259857Y-96542857D01*
X52974142Y-96542857D01*
X52859857Y-96485714D01*
X52802714Y-96428571D01*
X53831285Y-95342857D02*
X54231285Y-96542857D01*
X54631285Y-95342857D01*
X56574142Y-95400000D02*
X56459857Y-95342857D01*
X56288428Y-95342857D01*
X56117000Y-95400000D01*
X56002714Y-95514285D01*
X55945571Y-95628571D01*
X55888428Y-95857142D01*
X55888428Y-96028571D01*
X55945571Y-96257142D01*
X56002714Y-96371428D01*
X56117000Y-96485714D01*
X56288428Y-96542857D01*
X56402714Y-96542857D01*
X56574142Y-96485714D01*
X56631285Y-96428571D01*
X56631285Y-96028571D01*
X56402714Y-96028571D01*
X57145571Y-96542857D02*
X57145571Y-95342857D01*
X57831285Y-96542857D01*
X57831285Y-95342857D01*
X58402714Y-96542857D02*
X58402714Y-95342857D01*
X58688428Y-95342857D01*
X58859857Y-95400000D01*
X58974142Y-95514285D01*
X59031285Y-95628571D01*
X59088428Y-95857142D01*
X59088428Y-96028571D01*
X59031285Y-96257142D01*
X58974142Y-96371428D01*
X58859857Y-96485714D01*
X58688428Y-96542857D01*
X58402714Y-96542857D01*
X60459857Y-96200000D02*
X61031285Y-96200000D01*
X60345571Y-96542857D02*
X60745571Y-95342857D01*
X61145571Y-96542857D01*
X62859857Y-95914285D02*
X63031285Y-95971428D01*
X63088428Y-96028571D01*
X63145571Y-96142857D01*
X63145571Y-96314285D01*
X63088428Y-96428571D01*
X63031285Y-96485714D01*
X62917000Y-96542857D01*
X62459857Y-96542857D01*
X62459857Y-95342857D01*
X62859857Y-95342857D01*
X62974142Y-95400000D01*
X63031285Y-95457142D01*
X63088428Y-95571428D01*
X63088428Y-95685714D01*
X63031285Y-95800000D01*
X62974142Y-95857142D01*
X62859857Y-95914285D01*
X62459857Y-95914285D01*
X50402714Y-52542857D02*
X50402714Y-51342857D01*
X50859857Y-51342857D01*
X50974142Y-51400000D01*
X51031285Y-51457142D01*
X51088428Y-51571428D01*
X51088428Y-51742857D01*
X51031285Y-51857142D01*
X50974142Y-51914285D01*
X50859857Y-51971428D01*
X50402714Y-51971428D01*
X51545571Y-52200000D02*
X52117000Y-52200000D01*
X51431285Y-52542857D02*
X51831285Y-51342857D01*
X52231285Y-52542857D01*
X53145571Y-51342857D02*
X52917000Y-51342857D01*
X52802714Y-51400000D01*
X52745571Y-51457142D01*
X52631285Y-51628571D01*
X52574142Y-51857142D01*
X52574142Y-52314285D01*
X52631285Y-52428571D01*
X52688428Y-52485714D01*
X52802714Y-52542857D01*
X53031285Y-52542857D01*
X53145571Y-52485714D01*
X53202714Y-52428571D01*
X53259857Y-52314285D01*
X53259857Y-52028571D01*
X53202714Y-51914285D01*
X53145571Y-51857142D01*
X53031285Y-51800000D01*
X52802714Y-51800000D01*
X52688428Y-51857142D01*
X52631285Y-51914285D01*
X52574142Y-52028571D01*
X54688428Y-52542857D02*
X54688428Y-51342857D01*
X55374142Y-52542857D01*
X55374142Y-51342857D01*
X56631285Y-52428571D02*
X56574142Y-52485714D01*
X56402714Y-52542857D01*
X56288428Y-52542857D01*
X56117000Y-52485714D01*
X56002714Y-52371428D01*
X55945571Y-52257142D01*
X55888428Y-52028571D01*
X55888428Y-51857142D01*
X55945571Y-51628571D01*
X56002714Y-51514285D01*
X56117000Y-51400000D01*
X56288428Y-51342857D01*
X56402714Y-51342857D01*
X56574142Y-51400000D01*
X56631285Y-51457142D01*
X118402714Y-30542857D02*
X118402714Y-29342857D01*
X119088428Y-30542857D01*
X119088428Y-29342857D01*
X120345571Y-30542857D02*
X119945571Y-29971428D01*
X119659857Y-30542857D02*
X119659857Y-29342857D01*
X120117000Y-29342857D01*
X120231285Y-29400000D01*
X120288428Y-29457142D01*
X120345571Y-29571428D01*
X120345571Y-29742857D01*
X120288428Y-29857142D01*
X120231285Y-29914285D01*
X120117000Y-29971428D01*
X119659857Y-29971428D01*
X121259857Y-29914285D02*
X120859857Y-29914285D01*
X120859857Y-30542857D02*
X120859857Y-29342857D01*
X121431285Y-29342857D01*
X122631285Y-29342857D02*
X123031285Y-30542857D01*
X123431285Y-29342857D01*
X124517000Y-30428571D02*
X124459857Y-30485714D01*
X124288428Y-30542857D01*
X124174142Y-30542857D01*
X124002714Y-30485714D01*
X123888428Y-30371428D01*
X123831285Y-30257142D01*
X123774142Y-30028571D01*
X123774142Y-29857142D01*
X123831285Y-29628571D01*
X123888428Y-29514285D01*
X124002714Y-29400000D01*
X124174142Y-29342857D01*
X124288428Y-29342857D01*
X124459857Y-29400000D01*
X124517000Y-29457142D01*
X125717000Y-30428571D02*
X125659857Y-30485714D01*
X125488428Y-30542857D01*
X125374142Y-30542857D01*
X125202714Y-30485714D01*
X125088428Y-30371428D01*
X125031285Y-30257142D01*
X124974142Y-30028571D01*
X124974142Y-29857142D01*
X125031285Y-29628571D01*
X125088428Y-29514285D01*
X125202714Y-29400000D01*
X125374142Y-29342857D01*
X125488428Y-29342857D01*
X125659857Y-29400000D01*
X125717000Y-29457142D01*
X126231285Y-29914285D02*
X127145571Y-29914285D01*
X127145571Y-30257142D02*
X126231285Y-30257142D01*
X128288428Y-29342857D02*
X127717000Y-29342857D01*
X127659857Y-29914285D01*
X127717000Y-29857142D01*
X127831285Y-29800000D01*
X128117000Y-29800000D01*
X128231285Y-29857142D01*
X128288428Y-29914285D01*
X128345571Y-30028571D01*
X128345571Y-30314285D01*
X128288428Y-30428571D01*
X128231285Y-30485714D01*
X128117000Y-30542857D01*
X127831285Y-30542857D01*
X127717000Y-30485714D01*
X127659857Y-30428571D01*
X128688428Y-29342857D02*
X129088428Y-30542857D01*
X129488428Y-29342857D01*
X131659857Y-30200000D02*
X132231285Y-30200000D01*
X131545571Y-30542857D02*
X131945571Y-29342857D01*
X132345571Y-30542857D01*
X132745571Y-30542857D02*
X132745571Y-29342857D01*
X133431285Y-30542857D01*
X133431285Y-29342857D01*
X133831285Y-29342857D02*
X134517000Y-29342857D01*
X134174142Y-30542857D02*
X134174142Y-29342857D01*
X135374142Y-30542857D02*
X135374142Y-29628571D01*
X135145571Y-29857142D02*
X135374142Y-29628571D01*
X135602714Y-29857142D01*
X4288428Y-5342857D02*
X5031285Y-5342857D01*
X4631285Y-5800000D01*
X4802714Y-5800000D01*
X4917000Y-5857142D01*
X4974142Y-5914285D01*
X5031285Y-6028571D01*
X5031285Y-6314285D01*
X4974142Y-6428571D01*
X4917000Y-6485714D01*
X4802714Y-6542857D01*
X4459857Y-6542857D01*
X4345571Y-6485714D01*
X4288428Y-6428571D01*
X5374142Y-5342857D02*
X5774142Y-6542857D01*
X6174142Y-5342857D01*
X6459857Y-5342857D02*
X7202714Y-5342857D01*
X6802714Y-5800000D01*
X6974142Y-5800000D01*
X7088428Y-5857142D01*
X7145571Y-5914285D01*
X7202714Y-6028571D01*
X7202714Y-6314285D01*
X7145571Y-6428571D01*
X7088428Y-6485714D01*
X6974142Y-6542857D01*
X6631285Y-6542857D01*
X6517000Y-6485714D01*
X6459857Y-6428571D01*
X8631285Y-6542857D02*
X8631285Y-5342857D01*
X8631285Y-5800000D02*
X8745571Y-5742857D01*
X8974142Y-5742857D01*
X9088428Y-5800000D01*
X9145571Y-5857142D01*
X9202714Y-5971428D01*
X9202714Y-6314285D01*
X9145571Y-6428571D01*
X9088428Y-6485714D01*
X8974142Y-6542857D01*
X8745571Y-6542857D01*
X8631285Y-6485714D01*
X10231285Y-5742857D02*
X10231285Y-6542857D01*
X9717000Y-5742857D02*
X9717000Y-6371428D01*
X9774142Y-6485714D01*
X9888428Y-6542857D01*
X10059857Y-6542857D01*
X10174142Y-6485714D01*
X10231285Y-6428571D01*
X11317000Y-6485714D02*
X11202714Y-6542857D01*
X10974142Y-6542857D01*
X10859857Y-6485714D01*
X10802714Y-6428571D01*
X10745571Y-6314285D01*
X10745571Y-5971428D01*
X10802714Y-5857142D01*
X10859857Y-5800000D01*
X10974142Y-5742857D01*
X11202714Y-5742857D01*
X11317000Y-5800000D01*
X11831285Y-6542857D02*
X11831285Y-5342857D01*
X11945571Y-6085714D02*
X12288428Y-6542857D01*
X12288428Y-5742857D02*
X11831285Y-6200000D01*
D11*
%TO.C,TP3*%
X36990476Y-9561904D02*
X37447619Y-9561904D01*
X37219047Y-10361904D02*
X37219047Y-9561904D01*
X37714285Y-10361904D02*
X37714285Y-9561904D01*
X38019047Y-9561904D01*
X38095238Y-9600000D01*
X38133333Y-9638095D01*
X38171428Y-9714285D01*
X38171428Y-9828571D01*
X38133333Y-9904761D01*
X38095238Y-9942857D01*
X38019047Y-9980952D01*
X37714285Y-9980952D01*
X38438095Y-9561904D02*
X38933333Y-9561904D01*
X38666666Y-9866666D01*
X38780952Y-9866666D01*
X38857142Y-9904761D01*
X38895238Y-9942857D01*
X38933333Y-10019047D01*
X38933333Y-10209523D01*
X38895238Y-10285714D01*
X38857142Y-10323809D01*
X38780952Y-10361904D01*
X38552380Y-10361904D01*
X38476190Y-10323809D01*
X38438095Y-10285714D01*
%TO.C,D2*%
X31409523Y-44361904D02*
X31409523Y-43561904D01*
X31600000Y-43561904D01*
X31714285Y-43600000D01*
X31790476Y-43676190D01*
X31828571Y-43752380D01*
X31866666Y-43904761D01*
X31866666Y-44019047D01*
X31828571Y-44171428D01*
X31790476Y-44247619D01*
X31714285Y-44323809D01*
X31600000Y-44361904D01*
X31409523Y-44361904D01*
X32171428Y-43638095D02*
X32209523Y-43600000D01*
X32285714Y-43561904D01*
X32476190Y-43561904D01*
X32552380Y-43600000D01*
X32590476Y-43638095D01*
X32628571Y-43714285D01*
X32628571Y-43790476D01*
X32590476Y-43904761D01*
X32133333Y-44361904D01*
X32628571Y-44361904D01*
%TO.C,R1*%
X21866666Y-66361904D02*
X21600000Y-65980952D01*
X21409523Y-66361904D02*
X21409523Y-65561904D01*
X21714285Y-65561904D01*
X21790476Y-65600000D01*
X21828571Y-65638095D01*
X21866666Y-65714285D01*
X21866666Y-65828571D01*
X21828571Y-65904761D01*
X21790476Y-65942857D01*
X21714285Y-65980952D01*
X21409523Y-65980952D01*
X22628571Y-66361904D02*
X22171428Y-66361904D01*
X22400000Y-66361904D02*
X22400000Y-65561904D01*
X22323809Y-65676190D01*
X22247619Y-65752380D01*
X22171428Y-65790476D01*
%TO.C,C1*%
X11866666Y-36285714D02*
X11828571Y-36323809D01*
X11714285Y-36361904D01*
X11638095Y-36361904D01*
X11523809Y-36323809D01*
X11447619Y-36247619D01*
X11409523Y-36171428D01*
X11371428Y-36019047D01*
X11371428Y-35904761D01*
X11409523Y-35752380D01*
X11447619Y-35676190D01*
X11523809Y-35600000D01*
X11638095Y-35561904D01*
X11714285Y-35561904D01*
X11828571Y-35600000D01*
X11866666Y-35638095D01*
X12628571Y-36361904D02*
X12171428Y-36361904D01*
X12400000Y-36361904D02*
X12400000Y-35561904D01*
X12323809Y-35676190D01*
X12247619Y-35752380D01*
X12171428Y-35790476D01*
%TO.C,H6*%
X147390476Y-44361904D02*
X147390476Y-43561904D01*
X147390476Y-43942857D02*
X147847619Y-43942857D01*
X147847619Y-44361904D02*
X147847619Y-43561904D01*
X148571428Y-43561904D02*
X148419047Y-43561904D01*
X148342857Y-43600000D01*
X148304761Y-43638095D01*
X148228571Y-43752380D01*
X148190476Y-43904761D01*
X148190476Y-44209523D01*
X148228571Y-44285714D01*
X148266666Y-44323809D01*
X148342857Y-44361904D01*
X148495238Y-44361904D01*
X148571428Y-44323809D01*
X148609523Y-44285714D01*
X148647619Y-44209523D01*
X148647619Y-44019047D01*
X148609523Y-43942857D01*
X148571428Y-43904761D01*
X148495238Y-43866666D01*
X148342857Y-43866666D01*
X148266666Y-43904761D01*
X148228571Y-43942857D01*
X148190476Y-44019047D01*
%TO.C,TP2*%
X36990476Y-35561904D02*
X37447619Y-35561904D01*
X37219047Y-36361904D02*
X37219047Y-35561904D01*
X37714285Y-36361904D02*
X37714285Y-35561904D01*
X38019047Y-35561904D01*
X38095238Y-35600000D01*
X38133333Y-35638095D01*
X38171428Y-35714285D01*
X38171428Y-35828571D01*
X38133333Y-35904761D01*
X38095238Y-35942857D01*
X38019047Y-35980952D01*
X37714285Y-35980952D01*
X38476190Y-35638095D02*
X38514285Y-35600000D01*
X38590476Y-35561904D01*
X38780952Y-35561904D01*
X38857142Y-35600000D01*
X38895238Y-35638095D01*
X38933333Y-35714285D01*
X38933333Y-35790476D01*
X38895238Y-35904761D01*
X38438095Y-36361904D01*
X38933333Y-36361904D01*
%TO.C,R4*%
X54866666Y-76361904D02*
X54600000Y-75980952D01*
X54409523Y-76361904D02*
X54409523Y-75561904D01*
X54714285Y-75561904D01*
X54790476Y-75600000D01*
X54828571Y-75638095D01*
X54866666Y-75714285D01*
X54866666Y-75828571D01*
X54828571Y-75904761D01*
X54790476Y-75942857D01*
X54714285Y-75980952D01*
X54409523Y-75980952D01*
X55552380Y-75828571D02*
X55552380Y-76361904D01*
X55361904Y-75523809D02*
X55171428Y-76095238D01*
X55666666Y-76095238D01*
%TO.C,TP4*%
X36990476Y-3561904D02*
X37447619Y-3561904D01*
X37219047Y-4361904D02*
X37219047Y-3561904D01*
X37714285Y-4361904D02*
X37714285Y-3561904D01*
X38019047Y-3561904D01*
X38095238Y-3600000D01*
X38133333Y-3638095D01*
X38171428Y-3714285D01*
X38171428Y-3828571D01*
X38133333Y-3904761D01*
X38095238Y-3942857D01*
X38019047Y-3980952D01*
X37714285Y-3980952D01*
X38857142Y-3828571D02*
X38857142Y-4361904D01*
X38666666Y-3523809D02*
X38476190Y-4095238D01*
X38971428Y-4095238D01*
%TO.C,TB4*%
X46990476Y-83561904D02*
X47447619Y-83561904D01*
X47219047Y-84361904D02*
X47219047Y-83561904D01*
X47980952Y-83942857D02*
X48095238Y-83980952D01*
X48133333Y-84019047D01*
X48171428Y-84095238D01*
X48171428Y-84209523D01*
X48133333Y-84285714D01*
X48095238Y-84323809D01*
X48019047Y-84361904D01*
X47714285Y-84361904D01*
X47714285Y-83561904D01*
X47980952Y-83561904D01*
X48057142Y-83600000D01*
X48095238Y-83638095D01*
X48133333Y-83714285D01*
X48133333Y-83790476D01*
X48095238Y-83866666D01*
X48057142Y-83904761D01*
X47980952Y-83942857D01*
X47714285Y-83942857D01*
X48857142Y-83828571D02*
X48857142Y-84361904D01*
X48666666Y-83523809D02*
X48476190Y-84095238D01*
X48971428Y-84095238D01*
%TO.C,D1*%
X21409523Y-60361904D02*
X21409523Y-59561904D01*
X21600000Y-59561904D01*
X21714285Y-59600000D01*
X21790476Y-59676190D01*
X21828571Y-59752380D01*
X21866666Y-59904761D01*
X21866666Y-60019047D01*
X21828571Y-60171428D01*
X21790476Y-60247619D01*
X21714285Y-60323809D01*
X21600000Y-60361904D01*
X21409523Y-60361904D01*
X22628571Y-60361904D02*
X22171428Y-60361904D01*
X22400000Y-60361904D02*
X22400000Y-59561904D01*
X22323809Y-59676190D01*
X22247619Y-59752380D01*
X22171428Y-59790476D01*
%TO.C,TB1*%
X6990476Y-83561904D02*
X7447619Y-83561904D01*
X7219047Y-84361904D02*
X7219047Y-83561904D01*
X7980952Y-83942857D02*
X8095238Y-83980952D01*
X8133333Y-84019047D01*
X8171428Y-84095238D01*
X8171428Y-84209523D01*
X8133333Y-84285714D01*
X8095238Y-84323809D01*
X8019047Y-84361904D01*
X7714285Y-84361904D01*
X7714285Y-83561904D01*
X7980952Y-83561904D01*
X8057142Y-83600000D01*
X8095238Y-83638095D01*
X8133333Y-83714285D01*
X8133333Y-83790476D01*
X8095238Y-83866666D01*
X8057142Y-83904761D01*
X7980952Y-83942857D01*
X7714285Y-83942857D01*
X8933333Y-84361904D02*
X8476190Y-84361904D01*
X8704761Y-84361904D02*
X8704761Y-83561904D01*
X8628571Y-83676190D01*
X8552380Y-83752380D01*
X8476190Y-83790476D01*
%TO.C,J_NUC_L*%
X49942857Y-3561904D02*
X49942857Y-4133333D01*
X49904761Y-4247619D01*
X49828571Y-4323809D01*
X49714285Y-4361904D01*
X49638095Y-4361904D01*
X50133333Y-4438095D02*
X50742857Y-4438095D01*
X50933333Y-4361904D02*
X50933333Y-3561904D01*
X51390476Y-4361904D01*
X51390476Y-3561904D01*
X51771428Y-3561904D02*
X51771428Y-4209523D01*
X51809523Y-4285714D01*
X51847619Y-4323809D01*
X51923809Y-4361904D01*
X52076190Y-4361904D01*
X52152380Y-4323809D01*
X52190476Y-4285714D01*
X52228571Y-4209523D01*
X52228571Y-3561904D01*
X53066666Y-4285714D02*
X53028571Y-4323809D01*
X52914285Y-4361904D01*
X52838095Y-4361904D01*
X52723809Y-4323809D01*
X52647619Y-4247619D01*
X52609523Y-4171428D01*
X52571428Y-4019047D01*
X52571428Y-3904761D01*
X52609523Y-3752380D01*
X52647619Y-3676190D01*
X52723809Y-3600000D01*
X52838095Y-3561904D01*
X52914285Y-3561904D01*
X53028571Y-3600000D01*
X53066666Y-3638095D01*
X53219047Y-4438095D02*
X53828571Y-4438095D01*
X54400000Y-4361904D02*
X54019047Y-4361904D01*
X54019047Y-3561904D01*
%TO.C,D3*%
X31409523Y-18361904D02*
X31409523Y-17561904D01*
X31600000Y-17561904D01*
X31714285Y-17600000D01*
X31790476Y-17676190D01*
X31828571Y-17752380D01*
X31866666Y-17904761D01*
X31866666Y-18019047D01*
X31828571Y-18171428D01*
X31790476Y-18247619D01*
X31714285Y-18323809D01*
X31600000Y-18361904D01*
X31409523Y-18361904D01*
X32133333Y-17561904D02*
X32628571Y-17561904D01*
X32361904Y-17866666D01*
X32476190Y-17866666D01*
X32552380Y-17904761D01*
X32590476Y-17942857D01*
X32628571Y-18019047D01*
X32628571Y-18209523D01*
X32590476Y-18285714D01*
X32552380Y-18323809D01*
X32476190Y-18361904D01*
X32247619Y-18361904D01*
X32171428Y-18323809D01*
X32133333Y-18285714D01*
%TO.C,C5*%
X21866666Y-10285714D02*
X21828571Y-10323809D01*
X21714285Y-10361904D01*
X21638095Y-10361904D01*
X21523809Y-10323809D01*
X21447619Y-10247619D01*
X21409523Y-10171428D01*
X21371428Y-10019047D01*
X21371428Y-9904761D01*
X21409523Y-9752380D01*
X21447619Y-9676190D01*
X21523809Y-9600000D01*
X21638095Y-9561904D01*
X21714285Y-9561904D01*
X21828571Y-9600000D01*
X21866666Y-9638095D01*
X22590476Y-9561904D02*
X22209523Y-9561904D01*
X22171428Y-9942857D01*
X22209523Y-9904761D01*
X22285714Y-9866666D01*
X22476190Y-9866666D01*
X22552380Y-9904761D01*
X22590476Y-9942857D01*
X22628571Y-10019047D01*
X22628571Y-10209523D01*
X22590476Y-10285714D01*
X22552380Y-10323809D01*
X22476190Y-10361904D01*
X22285714Y-10361904D01*
X22209523Y-10323809D01*
X22171428Y-10285714D01*
%TO.C,L2*%
X21866666Y-18361904D02*
X21485714Y-18361904D01*
X21485714Y-17561904D01*
X22095238Y-17638095D02*
X22133333Y-17600000D01*
X22209523Y-17561904D01*
X22400000Y-17561904D01*
X22476190Y-17600000D01*
X22514285Y-17638095D01*
X22552380Y-17714285D01*
X22552380Y-17790476D01*
X22514285Y-17904761D01*
X22057142Y-18361904D01*
X22552380Y-18361904D01*
%TO.C,H8*%
X147390476Y-87361904D02*
X147390476Y-86561904D01*
X147390476Y-86942857D02*
X147847619Y-86942857D01*
X147847619Y-87361904D02*
X147847619Y-86561904D01*
X148342857Y-86904761D02*
X148266666Y-86866666D01*
X148228571Y-86828571D01*
X148190476Y-86752380D01*
X148190476Y-86714285D01*
X148228571Y-86638095D01*
X148266666Y-86600000D01*
X148342857Y-86561904D01*
X148495238Y-86561904D01*
X148571428Y-86600000D01*
X148609523Y-86638095D01*
X148647619Y-86714285D01*
X148647619Y-86752380D01*
X148609523Y-86828571D01*
X148571428Y-86866666D01*
X148495238Y-86904761D01*
X148342857Y-86904761D01*
X148266666Y-86942857D01*
X148228571Y-86980952D01*
X148190476Y-87057142D01*
X148190476Y-87209523D01*
X148228571Y-87285714D01*
X148266666Y-87323809D01*
X148342857Y-87361904D01*
X148495238Y-87361904D01*
X148571428Y-87323809D01*
X148609523Y-87285714D01*
X148647619Y-87209523D01*
X148647619Y-87057142D01*
X148609523Y-86980952D01*
X148571428Y-86942857D01*
X148495238Y-86904761D01*
%TO.C,C2*%
X21866666Y-36285714D02*
X21828571Y-36323809D01*
X21714285Y-36361904D01*
X21638095Y-36361904D01*
X21523809Y-36323809D01*
X21447619Y-36247619D01*
X21409523Y-36171428D01*
X21371428Y-36019047D01*
X21371428Y-35904761D01*
X21409523Y-35752380D01*
X21447619Y-35676190D01*
X21523809Y-35600000D01*
X21638095Y-35561904D01*
X21714285Y-35561904D01*
X21828571Y-35600000D01*
X21866666Y-35638095D01*
X22171428Y-35638095D02*
X22209523Y-35600000D01*
X22285714Y-35561904D01*
X22476190Y-35561904D01*
X22552380Y-35600000D01*
X22590476Y-35638095D01*
X22628571Y-35714285D01*
X22628571Y-35790476D01*
X22590476Y-35904761D01*
X22133333Y-36361904D01*
X22628571Y-36361904D01*
%TO.C,J_NUC_R*%
X65106666Y-3561904D02*
X65106666Y-4133333D01*
X65068571Y-4247619D01*
X64992380Y-4323809D01*
X64878095Y-4361904D01*
X64801904Y-4361904D01*
X65297142Y-4438095D02*
X65906666Y-4438095D01*
X66097142Y-4361904D02*
X66097142Y-3561904D01*
X66554285Y-4361904D01*
X66554285Y-3561904D01*
X66935238Y-3561904D02*
X66935238Y-4209523D01*
X66973333Y-4285714D01*
X67011428Y-4323809D01*
X67087619Y-4361904D01*
X67240000Y-4361904D01*
X67316190Y-4323809D01*
X67354285Y-4285714D01*
X67392380Y-4209523D01*
X67392380Y-3561904D01*
X68230476Y-4285714D02*
X68192380Y-4323809D01*
X68078095Y-4361904D01*
X68001904Y-4361904D01*
X67887619Y-4323809D01*
X67811428Y-4247619D01*
X67773333Y-4171428D01*
X67735238Y-4019047D01*
X67735238Y-3904761D01*
X67773333Y-3752380D01*
X67811428Y-3676190D01*
X67887619Y-3600000D01*
X68001904Y-3561904D01*
X68078095Y-3561904D01*
X68192380Y-3600000D01*
X68230476Y-3638095D01*
X68382857Y-4438095D02*
X68992380Y-4438095D01*
X69640000Y-4361904D02*
X69373333Y-3980952D01*
X69182857Y-4361904D02*
X69182857Y-3561904D01*
X69487619Y-3561904D01*
X69563809Y-3600000D01*
X69601904Y-3638095D01*
X69640000Y-3714285D01*
X69640000Y-3828571D01*
X69601904Y-3904761D01*
X69563809Y-3942857D01*
X69487619Y-3980952D01*
X69182857Y-3980952D01*
%TO.C,H7*%
X104390476Y-87361904D02*
X104390476Y-86561904D01*
X104390476Y-86942857D02*
X104847619Y-86942857D01*
X104847619Y-87361904D02*
X104847619Y-86561904D01*
X105152380Y-86561904D02*
X105685714Y-86561904D01*
X105342857Y-87361904D01*
%TO.C,C4*%
X11866666Y-10285714D02*
X11828571Y-10323809D01*
X11714285Y-10361904D01*
X11638095Y-10361904D01*
X11523809Y-10323809D01*
X11447619Y-10247619D01*
X11409523Y-10171428D01*
X11371428Y-10019047D01*
X11371428Y-9904761D01*
X11409523Y-9752380D01*
X11447619Y-9676190D01*
X11523809Y-9600000D01*
X11638095Y-9561904D01*
X11714285Y-9561904D01*
X11828571Y-9600000D01*
X11866666Y-9638095D01*
X12552380Y-9828571D02*
X12552380Y-10361904D01*
X12361904Y-9523809D02*
X12171428Y-10095238D01*
X12666666Y-10095238D01*
%TO.C,TB2*%
X98990476Y-83561904D02*
X99447619Y-83561904D01*
X99219047Y-84361904D02*
X99219047Y-83561904D01*
X99980952Y-83942857D02*
X100095238Y-83980952D01*
X100133333Y-84019047D01*
X100171428Y-84095238D01*
X100171428Y-84209523D01*
X100133333Y-84285714D01*
X100095238Y-84323809D01*
X100019047Y-84361904D01*
X99714285Y-84361904D01*
X99714285Y-83561904D01*
X99980952Y-83561904D01*
X100057142Y-83600000D01*
X100095238Y-83638095D01*
X100133333Y-83714285D01*
X100133333Y-83790476D01*
X100095238Y-83866666D01*
X100057142Y-83904761D01*
X99980952Y-83942857D01*
X99714285Y-83942857D01*
X100476190Y-83638095D02*
X100514285Y-83600000D01*
X100590476Y-83561904D01*
X100780952Y-83561904D01*
X100857142Y-83600000D01*
X100895238Y-83638095D01*
X100933333Y-83714285D01*
X100933333Y-83790476D01*
X100895238Y-83904761D01*
X100438095Y-84361904D01*
X100933333Y-84361904D01*
%TO.C,TB3*%
X110990476Y-83561904D02*
X111447619Y-83561904D01*
X111219047Y-84361904D02*
X111219047Y-83561904D01*
X111980952Y-83942857D02*
X112095238Y-83980952D01*
X112133333Y-84019047D01*
X112171428Y-84095238D01*
X112171428Y-84209523D01*
X112133333Y-84285714D01*
X112095238Y-84323809D01*
X112019047Y-84361904D01*
X111714285Y-84361904D01*
X111714285Y-83561904D01*
X111980952Y-83561904D01*
X112057142Y-83600000D01*
X112095238Y-83638095D01*
X112133333Y-83714285D01*
X112133333Y-83790476D01*
X112095238Y-83866666D01*
X112057142Y-83904761D01*
X111980952Y-83942857D01*
X111714285Y-83942857D01*
X112438095Y-83561904D02*
X112933333Y-83561904D01*
X112666666Y-83866666D01*
X112780952Y-83866666D01*
X112857142Y-83904761D01*
X112895238Y-83942857D01*
X112933333Y-84019047D01*
X112933333Y-84209523D01*
X112895238Y-84285714D01*
X112857142Y-84323809D01*
X112780952Y-84361904D01*
X112552380Y-84361904D01*
X112476190Y-84323809D01*
X112438095Y-84285714D01*
%TO.C,R3*%
X37866666Y-18361904D02*
X37600000Y-17980952D01*
X37409523Y-18361904D02*
X37409523Y-17561904D01*
X37714285Y-17561904D01*
X37790476Y-17600000D01*
X37828571Y-17638095D01*
X37866666Y-17714285D01*
X37866666Y-17828571D01*
X37828571Y-17904761D01*
X37790476Y-17942857D01*
X37714285Y-17980952D01*
X37409523Y-17980952D01*
X38133333Y-17561904D02*
X38628571Y-17561904D01*
X38361904Y-17866666D01*
X38476190Y-17866666D01*
X38552380Y-17904761D01*
X38590476Y-17942857D01*
X38628571Y-18019047D01*
X38628571Y-18209523D01*
X38590476Y-18285714D01*
X38552380Y-18323809D01*
X38476190Y-18361904D01*
X38247619Y-18361904D01*
X38171428Y-18323809D01*
X38133333Y-18285714D01*
%TO.C,R2*%
X37866666Y-44361904D02*
X37600000Y-43980952D01*
X37409523Y-44361904D02*
X37409523Y-43561904D01*
X37714285Y-43561904D01*
X37790476Y-43600000D01*
X37828571Y-43638095D01*
X37866666Y-43714285D01*
X37866666Y-43828571D01*
X37828571Y-43904761D01*
X37790476Y-43942857D01*
X37714285Y-43980952D01*
X37409523Y-43980952D01*
X38171428Y-43638095D02*
X38209523Y-43600000D01*
X38285714Y-43561904D01*
X38476190Y-43561904D01*
X38552380Y-43600000D01*
X38590476Y-43638095D01*
X38628571Y-43714285D01*
X38628571Y-43790476D01*
X38590476Y-43904761D01*
X38133333Y-44361904D01*
X38628571Y-44361904D01*
%TO.C,J_NRF*%
X120647619Y-3561904D02*
X120647619Y-4133333D01*
X120609523Y-4247619D01*
X120533333Y-4323809D01*
X120419047Y-4361904D01*
X120342857Y-4361904D01*
X120838095Y-4438095D02*
X121447619Y-4438095D01*
X121638095Y-4361904D02*
X121638095Y-3561904D01*
X122095238Y-4361904D01*
X122095238Y-3561904D01*
X122933333Y-4361904D02*
X122666666Y-3980952D01*
X122476190Y-4361904D02*
X122476190Y-3561904D01*
X122780952Y-3561904D01*
X122857142Y-3600000D01*
X122895238Y-3638095D01*
X122933333Y-3714285D01*
X122933333Y-3828571D01*
X122895238Y-3904761D01*
X122857142Y-3942857D01*
X122780952Y-3980952D01*
X122476190Y-3980952D01*
X123542857Y-3942857D02*
X123276190Y-3942857D01*
X123276190Y-4361904D02*
X123276190Y-3561904D01*
X123657142Y-3561904D01*
%TO.C,C6*%
X11866666Y-4285714D02*
X11828571Y-4323809D01*
X11714285Y-4361904D01*
X11638095Y-4361904D01*
X11523809Y-4323809D01*
X11447619Y-4247619D01*
X11409523Y-4171428D01*
X11371428Y-4019047D01*
X11371428Y-3904761D01*
X11409523Y-3752380D01*
X11447619Y-3676190D01*
X11523809Y-3600000D01*
X11638095Y-3561904D01*
X11714285Y-3561904D01*
X11828571Y-3600000D01*
X11866666Y-3638095D01*
X12552380Y-3561904D02*
X12400000Y-3561904D01*
X12323809Y-3600000D01*
X12285714Y-3638095D01*
X12209523Y-3752380D01*
X12171428Y-3904761D01*
X12171428Y-4209523D01*
X12209523Y-4285714D01*
X12247619Y-4323809D01*
X12323809Y-4361904D01*
X12476190Y-4361904D01*
X12552380Y-4323809D01*
X12590476Y-4285714D01*
X12628571Y-4209523D01*
X12628571Y-4019047D01*
X12590476Y-3942857D01*
X12552380Y-3904761D01*
X12476190Y-3866666D01*
X12323809Y-3866666D01*
X12247619Y-3904761D01*
X12209523Y-3942857D01*
X12171428Y-4019047D01*
%TO.C,C8*%
X53866666Y-62285714D02*
X53828571Y-62323809D01*
X53714285Y-62361904D01*
X53638095Y-62361904D01*
X53523809Y-62323809D01*
X53447619Y-62247619D01*
X53409523Y-62171428D01*
X53371428Y-62019047D01*
X53371428Y-61904761D01*
X53409523Y-61752380D01*
X53447619Y-61676190D01*
X53523809Y-61600000D01*
X53638095Y-61561904D01*
X53714285Y-61561904D01*
X53828571Y-61600000D01*
X53866666Y-61638095D01*
X54323809Y-61904761D02*
X54247619Y-61866666D01*
X54209523Y-61828571D01*
X54171428Y-61752380D01*
X54171428Y-61714285D01*
X54209523Y-61638095D01*
X54247619Y-61600000D01*
X54323809Y-61561904D01*
X54476190Y-61561904D01*
X54552380Y-61600000D01*
X54590476Y-61638095D01*
X54628571Y-61714285D01*
X54628571Y-61752380D01*
X54590476Y-61828571D01*
X54552380Y-61866666D01*
X54476190Y-61904761D01*
X54323809Y-61904761D01*
X54247619Y-61942857D01*
X54209523Y-61980952D01*
X54171428Y-62057142D01*
X54171428Y-62209523D01*
X54209523Y-62285714D01*
X54247619Y-62323809D01*
X54323809Y-62361904D01*
X54476190Y-62361904D01*
X54552380Y-62323809D01*
X54590476Y-62285714D01*
X54628571Y-62209523D01*
X54628571Y-62057142D01*
X54590476Y-61980952D01*
X54552380Y-61942857D01*
X54476190Y-61904761D01*
%TO.C,SJ_MINI*%
X33904761Y-54323809D02*
X34019047Y-54361904D01*
X34209523Y-54361904D01*
X34285714Y-54323809D01*
X34323809Y-54285714D01*
X34361904Y-54209523D01*
X34361904Y-54133333D01*
X34323809Y-54057142D01*
X34285714Y-54019047D01*
X34209523Y-53980952D01*
X34057142Y-53942857D01*
X33980952Y-53904761D01*
X33942857Y-53866666D01*
X33904761Y-53790476D01*
X33904761Y-53714285D01*
X33942857Y-53638095D01*
X33980952Y-53600000D01*
X34057142Y-53561904D01*
X34247619Y-53561904D01*
X34361904Y-53600000D01*
X34933333Y-53561904D02*
X34933333Y-54133333D01*
X34895238Y-54247619D01*
X34819047Y-54323809D01*
X34704761Y-54361904D01*
X34628571Y-54361904D01*
X35123809Y-54438095D02*
X35733333Y-54438095D01*
X35923809Y-54361904D02*
X35923809Y-53561904D01*
X36190476Y-54133333D01*
X36457142Y-53561904D01*
X36457142Y-54361904D01*
X36838095Y-54361904D02*
X36838095Y-53561904D01*
X37219047Y-54361904D02*
X37219047Y-53561904D01*
X37676190Y-54361904D01*
X37676190Y-53561904D01*
X38057142Y-54361904D02*
X38057142Y-53561904D01*
%TO.C,H5*%
X104390476Y-44361904D02*
X104390476Y-43561904D01*
X104390476Y-43942857D02*
X104847619Y-43942857D01*
X104847619Y-44361904D02*
X104847619Y-43561904D01*
X105609523Y-43561904D02*
X105228571Y-43561904D01*
X105190476Y-43942857D01*
X105228571Y-43904761D01*
X105304761Y-43866666D01*
X105495238Y-43866666D01*
X105571428Y-43904761D01*
X105609523Y-43942857D01*
X105647619Y-44019047D01*
X105647619Y-44209523D01*
X105609523Y-44285714D01*
X105571428Y-44323809D01*
X105495238Y-44361904D01*
X105304761Y-44361904D01*
X105228571Y-44323809D01*
X105190476Y-44285714D01*
%TO.C,F1*%
X21733333Y-83942857D02*
X21466666Y-83942857D01*
X21466666Y-84361904D02*
X21466666Y-83561904D01*
X21847619Y-83561904D01*
X22571428Y-84361904D02*
X22114285Y-84361904D01*
X22342857Y-84361904D02*
X22342857Y-83561904D01*
X22266666Y-83676190D01*
X22190476Y-83752380D01*
X22114285Y-83790476D01*
%TO.C,H2*%
X145890476Y138095D02*
X145890476Y938095D01*
X145890476Y557142D02*
X146347619Y557142D01*
X146347619Y138095D02*
X146347619Y938095D01*
X146690476Y861904D02*
X146728571Y900000D01*
X146804761Y938095D01*
X146995238Y938095D01*
X147071428Y900000D01*
X147109523Y861904D01*
X147147619Y785714D01*
X147147619Y709523D01*
X147109523Y595238D01*
X146652380Y138095D01*
X147147619Y138095D01*
%TO.C,H1*%
X2890476Y138095D02*
X2890476Y938095D01*
X2890476Y557142D02*
X3347619Y557142D01*
X3347619Y138095D02*
X3347619Y938095D01*
X4147619Y138095D02*
X3690476Y138095D01*
X3919047Y138095D02*
X3919047Y938095D01*
X3842857Y823809D01*
X3766666Y747619D01*
X3690476Y709523D01*
%TO.C,J_RFID*%
X76476190Y-83561904D02*
X76476190Y-84133333D01*
X76438095Y-84247619D01*
X76361904Y-84323809D01*
X76247619Y-84361904D01*
X76171428Y-84361904D01*
X76666666Y-84438095D02*
X77276190Y-84438095D01*
X77923809Y-84361904D02*
X77657142Y-83980952D01*
X77466666Y-84361904D02*
X77466666Y-83561904D01*
X77771428Y-83561904D01*
X77847619Y-83600000D01*
X77885714Y-83638095D01*
X77923809Y-83714285D01*
X77923809Y-83828571D01*
X77885714Y-83904761D01*
X77847619Y-83942857D01*
X77771428Y-83980952D01*
X77466666Y-83980952D01*
X78533333Y-83942857D02*
X78266666Y-83942857D01*
X78266666Y-84361904D02*
X78266666Y-83561904D01*
X78647619Y-83561904D01*
X78952380Y-84361904D02*
X78952380Y-83561904D01*
X79333333Y-84361904D02*
X79333333Y-83561904D01*
X79523809Y-83561904D01*
X79638095Y-83600000D01*
X79714285Y-83676190D01*
X79752380Y-83752380D01*
X79790476Y-83904761D01*
X79790476Y-84019047D01*
X79752380Y-84171428D01*
X79714285Y-84247619D01*
X79638095Y-84323809D01*
X79523809Y-84361904D01*
X79333333Y-84361904D01*
%TO.C,H4*%
X145890476Y-92861904D02*
X145890476Y-92061904D01*
X145890476Y-92442857D02*
X146347619Y-92442857D01*
X146347619Y-92861904D02*
X146347619Y-92061904D01*
X147071428Y-92328571D02*
X147071428Y-92861904D01*
X146880952Y-92023809D02*
X146690476Y-92595238D01*
X147185714Y-92595238D01*
%TO.C,R7*%
X71866666Y-60361904D02*
X71600000Y-59980952D01*
X71409523Y-60361904D02*
X71409523Y-59561904D01*
X71714285Y-59561904D01*
X71790476Y-59600000D01*
X71828571Y-59638095D01*
X71866666Y-59714285D01*
X71866666Y-59828571D01*
X71828571Y-59904761D01*
X71790476Y-59942857D01*
X71714285Y-59980952D01*
X71409523Y-59980952D01*
X72133333Y-59561904D02*
X72666666Y-59561904D01*
X72323809Y-60361904D01*
%TO.C,J_MINI*%
X20552380Y-53561904D02*
X20552380Y-54133333D01*
X20514285Y-54247619D01*
X20438095Y-54323809D01*
X20323809Y-54361904D01*
X20247619Y-54361904D01*
X20742857Y-54438095D02*
X21352380Y-54438095D01*
X21542857Y-54361904D02*
X21542857Y-53561904D01*
X21809523Y-54133333D01*
X22076190Y-53561904D01*
X22076190Y-54361904D01*
X22457142Y-54361904D02*
X22457142Y-53561904D01*
X22838095Y-54361904D02*
X22838095Y-53561904D01*
X23295238Y-54361904D01*
X23295238Y-53561904D01*
X23676190Y-54361904D02*
X23676190Y-53561904D01*
%TO.C,U3*%
X61390476Y-57561904D02*
X61390476Y-58209523D01*
X61428571Y-58285714D01*
X61466666Y-58323809D01*
X61542857Y-58361904D01*
X61695238Y-58361904D01*
X61771428Y-58323809D01*
X61809523Y-58285714D01*
X61847619Y-58209523D01*
X61847619Y-57561904D01*
X62152380Y-57561904D02*
X62647619Y-57561904D01*
X62380952Y-57866666D01*
X62495238Y-57866666D01*
X62571428Y-57904761D01*
X62609523Y-57942857D01*
X62647619Y-58019047D01*
X62647619Y-58209523D01*
X62609523Y-58285714D01*
X62571428Y-58323809D01*
X62495238Y-58361904D01*
X62266666Y-58361904D01*
X62190476Y-58323809D01*
X62152380Y-58285714D01*
%TO.C,U1*%
X11390476Y-43561904D02*
X11390476Y-44209523D01*
X11428571Y-44285714D01*
X11466666Y-44323809D01*
X11542857Y-44361904D01*
X11695238Y-44361904D01*
X11771428Y-44323809D01*
X11809523Y-44285714D01*
X11847619Y-44209523D01*
X11847619Y-43561904D01*
X12647619Y-44361904D02*
X12190476Y-44361904D01*
X12419047Y-44361904D02*
X12419047Y-43561904D01*
X12342857Y-43676190D01*
X12266666Y-43752380D01*
X12190476Y-43790476D01*
%TO.C,C3*%
X11866666Y-30285714D02*
X11828571Y-30323809D01*
X11714285Y-30361904D01*
X11638095Y-30361904D01*
X11523809Y-30323809D01*
X11447619Y-30247619D01*
X11409523Y-30171428D01*
X11371428Y-30019047D01*
X11371428Y-29904761D01*
X11409523Y-29752380D01*
X11447619Y-29676190D01*
X11523809Y-29600000D01*
X11638095Y-29561904D01*
X11714285Y-29561904D01*
X11828571Y-29600000D01*
X11866666Y-29638095D01*
X12133333Y-29561904D02*
X12628571Y-29561904D01*
X12361904Y-29866666D01*
X12476190Y-29866666D01*
X12552380Y-29904761D01*
X12590476Y-29942857D01*
X12628571Y-30019047D01*
X12628571Y-30209523D01*
X12590476Y-30285714D01*
X12552380Y-30323809D01*
X12476190Y-30361904D01*
X12247619Y-30361904D01*
X12171428Y-30323809D01*
X12133333Y-30285714D01*
%TO.C,U2*%
X11390476Y-17561904D02*
X11390476Y-18209523D01*
X11428571Y-18285714D01*
X11466666Y-18323809D01*
X11542857Y-18361904D01*
X11695238Y-18361904D01*
X11771428Y-18323809D01*
X11809523Y-18285714D01*
X11847619Y-18209523D01*
X11847619Y-17561904D01*
X12190476Y-17638095D02*
X12228571Y-17600000D01*
X12304761Y-17561904D01*
X12495238Y-17561904D01*
X12571428Y-17600000D01*
X12609523Y-17638095D01*
X12647619Y-17714285D01*
X12647619Y-17790476D01*
X12609523Y-17904761D01*
X12152380Y-18361904D01*
X12647619Y-18361904D01*
%TO.C,R6*%
X71866666Y-56361904D02*
X71600000Y-55980952D01*
X71409523Y-56361904D02*
X71409523Y-55561904D01*
X71714285Y-55561904D01*
X71790476Y-55600000D01*
X71828571Y-55638095D01*
X71866666Y-55714285D01*
X71866666Y-55828571D01*
X71828571Y-55904761D01*
X71790476Y-55942857D01*
X71714285Y-55980952D01*
X71409523Y-55980952D01*
X72552380Y-55561904D02*
X72400000Y-55561904D01*
X72323809Y-55600000D01*
X72285714Y-55638095D01*
X72209523Y-55752380D01*
X72171428Y-55904761D01*
X72171428Y-56209523D01*
X72209523Y-56285714D01*
X72247619Y-56323809D01*
X72323809Y-56361904D01*
X72476190Y-56361904D01*
X72552380Y-56323809D01*
X72590476Y-56285714D01*
X72628571Y-56209523D01*
X72628571Y-56019047D01*
X72590476Y-55942857D01*
X72552380Y-55904761D01*
X72476190Y-55866666D01*
X72323809Y-55866666D01*
X72247619Y-55904761D01*
X72209523Y-55942857D01*
X72171428Y-56019047D01*
%TO.C,Q1*%
X21923809Y-72438095D02*
X21847619Y-72400000D01*
X21771428Y-72323809D01*
X21657142Y-72209523D01*
X21580952Y-72171428D01*
X21504761Y-72171428D01*
X21542857Y-72361904D02*
X21466666Y-72323809D01*
X21390476Y-72247619D01*
X21352380Y-72095238D01*
X21352380Y-71828571D01*
X21390476Y-71676190D01*
X21466666Y-71600000D01*
X21542857Y-71561904D01*
X21695238Y-71561904D01*
X21771428Y-71600000D01*
X21847619Y-71676190D01*
X21885714Y-71828571D01*
X21885714Y-72095238D01*
X21847619Y-72247619D01*
X21771428Y-72323809D01*
X21695238Y-72361904D01*
X21542857Y-72361904D01*
X22647619Y-72361904D02*
X22190476Y-72361904D01*
X22419047Y-72361904D02*
X22419047Y-71561904D01*
X22342857Y-71676190D01*
X22266666Y-71752380D01*
X22190476Y-71790476D01*
%TO.C,H3*%
X2890476Y-92861904D02*
X2890476Y-92061904D01*
X2890476Y-92442857D02*
X3347619Y-92442857D01*
X3347619Y-92861904D02*
X3347619Y-92061904D01*
X3652380Y-92061904D02*
X4147619Y-92061904D01*
X3880952Y-92366666D01*
X3995238Y-92366666D01*
X4071428Y-92404761D01*
X4109523Y-92442857D01*
X4147619Y-92519047D01*
X4147619Y-92709523D01*
X4109523Y-92785714D01*
X4071428Y-92823809D01*
X3995238Y-92861904D01*
X3766666Y-92861904D01*
X3690476Y-92823809D01*
X3652380Y-92785714D01*
%TO.C,J_HX711*%
X75866666Y-75561904D02*
X75866666Y-76133333D01*
X75828571Y-76247619D01*
X75752380Y-76323809D01*
X75638095Y-76361904D01*
X75561904Y-76361904D01*
X76057142Y-76438095D02*
X76666666Y-76438095D01*
X76857142Y-76361904D02*
X76857142Y-75561904D01*
X76857142Y-75942857D02*
X77314285Y-75942857D01*
X77314285Y-76361904D02*
X77314285Y-75561904D01*
X77619047Y-75561904D02*
X78152380Y-76361904D01*
X78152380Y-75561904D02*
X77619047Y-76361904D01*
X78380952Y-75561904D02*
X78914285Y-75561904D01*
X78571428Y-76361904D01*
X79638095Y-76361904D02*
X79180952Y-76361904D01*
X79409523Y-76361904D02*
X79409523Y-75561904D01*
X79333333Y-75676190D01*
X79257142Y-75752380D01*
X79180952Y-75790476D01*
X80400000Y-76361904D02*
X79942857Y-76361904D01*
X80171428Y-76361904D02*
X80171428Y-75561904D01*
X80095238Y-75676190D01*
X80019047Y-75752380D01*
X79942857Y-75790476D01*
%TO.C,J_IBT*%
X98914285Y-47561904D02*
X98914285Y-48133333D01*
X98876190Y-48247619D01*
X98800000Y-48323809D01*
X98685714Y-48361904D01*
X98609523Y-48361904D01*
X99104761Y-48438095D02*
X99714285Y-48438095D01*
X99904761Y-48361904D02*
X99904761Y-47561904D01*
X100552380Y-47942857D02*
X100666666Y-47980952D01*
X100704761Y-48019047D01*
X100742857Y-48095238D01*
X100742857Y-48209523D01*
X100704761Y-48285714D01*
X100666666Y-48323809D01*
X100590476Y-48361904D01*
X100285714Y-48361904D01*
X100285714Y-47561904D01*
X100552380Y-47561904D01*
X100628571Y-47600000D01*
X100666666Y-47638095D01*
X100704761Y-47714285D01*
X100704761Y-47790476D01*
X100666666Y-47866666D01*
X100628571Y-47904761D01*
X100552380Y-47942857D01*
X100285714Y-47942857D01*
X100971428Y-47561904D02*
X101428571Y-47561904D01*
X101200000Y-48361904D02*
X101200000Y-47561904D01*
%TO.C,C7*%
X53866666Y-58285714D02*
X53828571Y-58323809D01*
X53714285Y-58361904D01*
X53638095Y-58361904D01*
X53523809Y-58323809D01*
X53447619Y-58247619D01*
X53409523Y-58171428D01*
X53371428Y-58019047D01*
X53371428Y-57904761D01*
X53409523Y-57752380D01*
X53447619Y-57676190D01*
X53523809Y-57600000D01*
X53638095Y-57561904D01*
X53714285Y-57561904D01*
X53828571Y-57600000D01*
X53866666Y-57638095D01*
X54133333Y-57561904D02*
X54666666Y-57561904D01*
X54323809Y-58361904D01*
%TO.C,R5*%
X61866666Y-76361904D02*
X61600000Y-75980952D01*
X61409523Y-76361904D02*
X61409523Y-75561904D01*
X61714285Y-75561904D01*
X61790476Y-75600000D01*
X61828571Y-75638095D01*
X61866666Y-75714285D01*
X61866666Y-75828571D01*
X61828571Y-75904761D01*
X61790476Y-75942857D01*
X61714285Y-75980952D01*
X61409523Y-75980952D01*
X62590476Y-75561904D02*
X62209523Y-75561904D01*
X62171428Y-75942857D01*
X62209523Y-75904761D01*
X62285714Y-75866666D01*
X62476190Y-75866666D01*
X62552380Y-75904761D01*
X62590476Y-75942857D01*
X62628571Y-76019047D01*
X62628571Y-76209523D01*
X62590476Y-76285714D01*
X62552380Y-76323809D01*
X62476190Y-76361904D01*
X62285714Y-76361904D01*
X62209523Y-76323809D01*
X62171428Y-76285714D01*
%TO.C,L1*%
X21866666Y-44361904D02*
X21485714Y-44361904D01*
X21485714Y-43561904D01*
X22552380Y-44361904D02*
X22095238Y-44361904D01*
X22323809Y-44361904D02*
X22323809Y-43561904D01*
X22247619Y-43676190D01*
X22171428Y-43752380D01*
X22095238Y-43790476D01*
%TO.C,TP1*%
X30990476Y-83561904D02*
X31447619Y-83561904D01*
X31219047Y-84361904D02*
X31219047Y-83561904D01*
X31714285Y-84361904D02*
X31714285Y-83561904D01*
X32019047Y-83561904D01*
X32095238Y-83600000D01*
X32133333Y-83638095D01*
X32171428Y-83714285D01*
X32171428Y-83828571D01*
X32133333Y-83904761D01*
X32095238Y-83942857D01*
X32019047Y-83980952D01*
X31714285Y-83980952D01*
X32933333Y-84361904D02*
X32476190Y-84361904D01*
X32704761Y-84361904D02*
X32704761Y-83561904D01*
X32628571Y-83676190D01*
X32552380Y-83752380D01*
X32476190Y-83790476D01*
%TD*%
D12*
X13400000Y-40000000D03*
X15500000Y-62000000D03*
X54950000Y-62000000D03*
X37050000Y-48000000D03*
X21050000Y-70000000D03*
X12950000Y-34000000D03*
X24100000Y-64000000D03*
X80500000Y-88000000D03*
X55400000Y-66000000D03*
X22950000Y-70000000D03*
X28500000Y-62000000D03*
X23400000Y-14000000D03*
X12000000Y-47050000D03*
X148000000Y-48000000D03*
X13400000Y-14000000D03*
X146500000Y-3500000D03*
X52000000Y-41020000D03*
X19300000Y-77905000D03*
X105000000Y-48000000D03*
X148000000Y-91000000D03*
X122000000Y-8000000D03*
X53080000Y-88000000D03*
X67240000Y-15620000D03*
X31050000Y-48000000D03*
X58900000Y-64275000D03*
X58900000Y-64925000D03*
X105080000Y-88000000D03*
X3500000Y-96500000D03*
X12950000Y-8000000D03*
X146500000Y-96500000D03*
X105000000Y-91000000D03*
X100000000Y-69780000D03*
X13080000Y-88000000D03*
X12000000Y-21050000D03*
X31050000Y-22000000D03*
X38000000Y-8000000D03*
X3500000Y-3500000D03*
X37050000Y-22000000D03*
X80500000Y-80000000D03*
X23400000Y-40000000D03*
X72000000Y-60000000D03*
X72000000Y-62325000D03*
X58900000Y-62325000D03*
X72000000Y-25780000D03*
X72950000Y-60000000D03*
X67240000Y-25780000D03*
X72000000Y-62975000D03*
X58900000Y-62975000D03*
X72000000Y-64000000D03*
X72950000Y-64000000D03*
X67240000Y-23240000D03*
X72000000Y-23240000D03*
X67240000Y-20700000D03*
X118000000Y-10540000D03*
X122000000Y-10540000D03*
X118000000Y-20700000D03*
X52000000Y-23240000D03*
X118000000Y-23240000D03*
X124540000Y-10540000D03*
X118000000Y-10540000D03*
X52000000Y-25780000D03*
X122000000Y-13080000D03*
X118000000Y-25780000D03*
X118000000Y-13080000D03*
X118000000Y-13080000D03*
X52000000Y-30860000D03*
X124540000Y-13080000D03*
X118000000Y-30860000D03*
X122000000Y-15620000D03*
X118000000Y-15620000D03*
X67240000Y-28320000D03*
X118000000Y-28320000D03*
X56000000Y-88000000D03*
X83000000Y-88000000D03*
X56000000Y-20700000D03*
X52000000Y-20700000D03*
X83000000Y-80000000D03*
X74000000Y-80000000D03*
X67240000Y-43560000D03*
X74000000Y-43560000D03*
X67240000Y-41020000D03*
X75000000Y-80000000D03*
X75000000Y-41020000D03*
X85500000Y-80000000D03*
X59000000Y-38480000D03*
X52000000Y-38480000D03*
X67240000Y-13080000D03*
X59000000Y-13080000D03*
D13*
X38000000Y-14000000D03*
X148000000Y-48000000D03*
X38000000Y-40000000D03*
X38000000Y-8000000D03*
X48000000Y-88000000D03*
X53080000Y-88000000D03*
X58160000Y-88000000D03*
X63240000Y-88000000D03*
X8000000Y-88000000D03*
X13080000Y-88000000D03*
X52000000Y-8000000D03*
X52000000Y-10540000D03*
X52000000Y-13080000D03*
X52000000Y-15620000D03*
X52000000Y-18160000D03*
X52000000Y-20700000D03*
X52000000Y-23240000D03*
X52000000Y-25780000D03*
X52000000Y-28320000D03*
X52000000Y-30860000D03*
X52000000Y-33400000D03*
X52000000Y-35940000D03*
X52000000Y-38480000D03*
X52000000Y-41020000D03*
X52000000Y-43560000D03*
X148000000Y-91000000D03*
X67240000Y-8000000D03*
X67240000Y-10540000D03*
X67240000Y-13080000D03*
X67240000Y-15620000D03*
X67240000Y-18160000D03*
X67240000Y-20700000D03*
X67240000Y-23240000D03*
X67240000Y-25780000D03*
X67240000Y-28320000D03*
X67240000Y-30860000D03*
X67240000Y-33400000D03*
X67240000Y-35940000D03*
X67240000Y-38480000D03*
X67240000Y-41020000D03*
X67240000Y-43560000D03*
X105000000Y-91000000D03*
X100000000Y-88000000D03*
X105080000Y-88000000D03*
X112000000Y-88000000D03*
X117080000Y-88000000D03*
X122000000Y-8000000D03*
X124540000Y-8000000D03*
X122000000Y-10540000D03*
X124540000Y-10540000D03*
X122000000Y-13080000D03*
X124540000Y-13080000D03*
X122000000Y-15620000D03*
X124540000Y-15620000D03*
X105000000Y-48000000D03*
X12000000Y-88000000D03*
X32000000Y-88000000D03*
X146500000Y-3500000D03*
X3500000Y-3500000D03*
X78000000Y-88000000D03*
X80500000Y-88000000D03*
X83000000Y-88000000D03*
X85500000Y-88000000D03*
X146500000Y-96500000D03*
X15500000Y-54000000D03*
X15500000Y-62000000D03*
X28500000Y-54000000D03*
X28500000Y-62000000D03*
X3500000Y-96500000D03*
X78000000Y-80000000D03*
X80500000Y-80000000D03*
X83000000Y-80000000D03*
X85500000Y-80000000D03*
X100000000Y-52000000D03*
X100000000Y-54540000D03*
X100000000Y-57080000D03*
X100000000Y-59620000D03*
X100000000Y-62160000D03*
X100000000Y-64700000D03*
X100000000Y-67240000D03*
X100000000Y-69780000D03*
X32000000Y-88000000D03*
M02*
