%TF.GenerationSoftware,KiCad,Pcbnew,6.0.11+dfsg-1*%
%TF.CreationDate,2026-08-12T10:57:17+01:00*%
%TF.ProjectId,wifeeder-actuator,77696665-6564-4657-922d-616374756174,1*%
%TF.SameCoordinates,Original*%
%TF.FileFunction,Soldermask,Top*%
%TF.FilePolarity,Negative*%
%FSLAX46Y46*%
G04 Gerber Fmt 4.6, Leading zero omitted, Abs format (unit mm)*
G04 Created by KiCad (PCBNEW 6.0.11+dfsg-1) date 2026-08-12 10:57:17*
%MOMM*%
%LPD*%
G01*
G04 APERTURE LIST*
G04 Aperture macros list*
%AMRoundRect*
0 Rectangle with rounded corners*
0 $1 Rounding radius*
0 $2 $3 $4 $5 $6 $7 $8 $9 X,Y pos of 4 corners*
0 Add a 4 corners polygon primitive as box body*
4,1,4,$2,$3,$4,$5,$6,$7,$8,$9,$2,$3,0*
0 Add four circle primitives for the rounded corners*
1,1,$1+$1,$2,$3*
1,1,$1+$1,$4,$5*
1,1,$1+$1,$6,$7*
1,1,$1+$1,$8,$9*
0 Add four rect primitives between the rounded corners*
20,1,$1+$1,$2,$3,$4,$5,0*
20,1,$1+$1,$4,$5,$6,$7,0*
20,1,$1+$1,$6,$7,$8,$9,0*
20,1,$1+$1,$8,$9,$2,$3,0*%
G04 Aperture macros list end*
%ADD10RoundRect,0.050000X-0.900000X-0.900000X0.900000X-0.900000X0.900000X0.900000X-0.900000X0.900000X0*%
%ADD11RoundRect,0.250000X-0.200000X-0.450000X0.200000X-0.450000X0.200000X0.450000X-0.200000X0.450000X0*%
%ADD12RoundRect,0.325000X-0.275000X-0.525000X0.275000X-0.525000X0.275000X0.525000X-0.275000X0.525000X0*%
%ADD13C,6.300000*%
%ADD14RoundRect,0.050000X-1.600000X-1.600000X1.600000X-1.600000X1.600000X1.600000X-1.600000X1.600000X0*%
%ADD15C,3.300000*%
%ADD16RoundRect,0.500000X-0.450000X-0.650000X0.450000X-0.650000X0.450000X0.650000X-0.450000X0.650000X0*%
%ADD17RoundRect,0.050000X-0.850000X-0.850000X0.850000X-0.850000X0.850000X0.850000X-0.850000X0.850000X0*%
%ADD18C,1.800000*%
%ADD19RoundRect,0.450000X-0.400000X-1.850000X0.400000X-1.850000X0.400000X1.850000X-0.400000X1.850000X0*%
%ADD20RoundRect,0.325000X-0.275000X-0.375000X0.275000X-0.375000X0.275000X0.375000X-0.275000X0.375000X0*%
%ADD21RoundRect,0.050000X-1.500000X-1.500000X1.500000X-1.500000X1.500000X1.500000X-1.500000X1.500000X0*%
%ADD22C,3.100000*%
%ADD23RoundRect,0.050000X-1.000000X-1.000000X1.000000X-1.000000X1.000000X1.000000X-1.000000X1.000000X0*%
%ADD24C,2.100000*%
%ADD25RoundRect,0.150000X-0.575000X-0.100000X0.575000X-0.100000X0.575000X0.100000X-0.575000X0.100000X0*%
%ADD26RoundRect,0.187500X-0.212500X-0.137500X0.212500X-0.137500X0.212500X0.137500X-0.212500X0.137500X0*%
%ADD27RoundRect,0.200000X-0.625000X-0.150000X0.625000X-0.150000X0.625000X0.150000X-0.625000X0.150000X0*%
G04 APERTURE END LIST*
D10*
%TO.C,TP3*%
X38000000Y-14000000D03*
%TD*%
D11*
%TO.C,D2*%
X31050000Y-48000000D03*
X32950000Y-48000000D03*
%TD*%
%TO.C,R1*%
X21050000Y-70000000D03*
X22950000Y-70000000D03*
%TD*%
D12*
%TO.C,C1*%
X10600000Y-40000000D03*
X13400000Y-40000000D03*
%TD*%
D13*
%TO.C,H6*%
X148000000Y-48000000D03*
%TD*%
D10*
%TO.C,TP2*%
X38000000Y-40000000D03*
%TD*%
D11*
%TO.C,R4*%
X54050000Y-80000000D03*
X55950000Y-80000000D03*
%TD*%
D10*
%TO.C,TP4*%
X38000000Y-8000000D03*
%TD*%
D14*
%TO.C,TB4*%
X48000000Y-88000000D03*
D15*
X53080000Y-88000000D03*
X58160000Y-88000000D03*
X63240000Y-88000000D03*
%TD*%
D16*
%TO.C,D1*%
X19900000Y-64000000D03*
X24100000Y-64000000D03*
%TD*%
D14*
%TO.C,TB1*%
X8000000Y-88000000D03*
D15*
X13080000Y-88000000D03*
%TD*%
D17*
%TO.C,J_NUC_L*%
X52000000Y-8000000D03*
D18*
X52000000Y-10540000D03*
X52000000Y-13080000D03*
X52000000Y-15620000D03*
X52000000Y-18160000D03*
X52000000Y-20700000D03*
X52000000Y-23240000D03*
X52000000Y-25780000D03*
X52000000Y-28320000D03*
X52000000Y-30860000D03*
X52000000Y-33400000D03*
X52000000Y-35940000D03*
X52000000Y-38480000D03*
X52000000Y-41020000D03*
X52000000Y-43560000D03*
%TD*%
D11*
%TO.C,D3*%
X31050000Y-22000000D03*
X32950000Y-22000000D03*
%TD*%
D12*
%TO.C,C5*%
X20600000Y-14000000D03*
X23400000Y-14000000D03*
%TD*%
D19*
%TO.C,L2*%
X19600000Y-22000000D03*
X24400000Y-22000000D03*
%TD*%
D13*
%TO.C,H8*%
X148000000Y-91000000D03*
%TD*%
D12*
%TO.C,C2*%
X20600000Y-40000000D03*
X23400000Y-40000000D03*
%TD*%
D17*
%TO.C,J_NUC_R*%
X67240000Y-8000000D03*
D18*
X67240000Y-10540000D03*
X67240000Y-13080000D03*
X67240000Y-15620000D03*
X67240000Y-18160000D03*
X67240000Y-20700000D03*
X67240000Y-23240000D03*
X67240000Y-25780000D03*
X67240000Y-28320000D03*
X67240000Y-30860000D03*
X67240000Y-33400000D03*
X67240000Y-35940000D03*
X67240000Y-38480000D03*
X67240000Y-41020000D03*
X67240000Y-43560000D03*
%TD*%
D13*
%TO.C,H7*%
X105000000Y-91000000D03*
%TD*%
D12*
%TO.C,C4*%
X10600000Y-14000000D03*
X13400000Y-14000000D03*
%TD*%
D14*
%TO.C,TB2*%
X100000000Y-88000000D03*
D15*
X105080000Y-88000000D03*
%TD*%
D14*
%TO.C,TB3*%
X112000000Y-88000000D03*
D15*
X117080000Y-88000000D03*
%TD*%
D11*
%TO.C,R3*%
X37050000Y-22000000D03*
X38950000Y-22000000D03*
%TD*%
%TO.C,R2*%
X37050000Y-48000000D03*
X38950000Y-48000000D03*
%TD*%
D17*
%TO.C,J_NRF*%
X122000000Y-8000000D03*
D18*
X124540000Y-8000000D03*
X122000000Y-10540000D03*
X124540000Y-10540000D03*
X122000000Y-13080000D03*
X124540000Y-13080000D03*
X122000000Y-15620000D03*
X124540000Y-15620000D03*
%TD*%
D11*
%TO.C,C6*%
X11050000Y-8000000D03*
X12950000Y-8000000D03*
%TD*%
D12*
%TO.C,C8*%
X52600000Y-66000000D03*
X55400000Y-66000000D03*
%TD*%
D20*
%TO.C,SJ_MINI*%
X34600000Y-58000000D03*
X36000000Y-58000000D03*
X37400000Y-58000000D03*
%TD*%
D13*
%TO.C,H5*%
X105000000Y-48000000D03*
%TD*%
D21*
%TO.C,F1*%
X12000000Y-88000000D03*
D22*
X32000000Y-88000000D03*
%TD*%
D13*
%TO.C,H2*%
X146500000Y-3500000D03*
%TD*%
%TO.C,H1*%
X3500000Y-3500000D03*
%TD*%
D17*
%TO.C,J_RFID*%
X78000000Y-88000000D03*
D18*
X80500000Y-88000000D03*
X83000000Y-88000000D03*
X85500000Y-88000000D03*
%TD*%
D13*
%TO.C,H4*%
X146500000Y-96500000D03*
%TD*%
D11*
%TO.C,R7*%
X71050000Y-64000000D03*
X72950000Y-64000000D03*
%TD*%
D23*
%TO.C,J_MINI*%
X15500000Y-54000000D03*
D24*
X15500000Y-62000000D03*
X28500000Y-54000000D03*
X28500000Y-62000000D03*
%TD*%
D25*
%TO.C,U3*%
X58900000Y-57775000D03*
X58900000Y-58425000D03*
X58900000Y-59075000D03*
X58900000Y-59725000D03*
X58900000Y-60375000D03*
X58900000Y-61025000D03*
X58900000Y-61675000D03*
X58900000Y-62325000D03*
X58900000Y-62975000D03*
X58900000Y-63625000D03*
X58900000Y-64275000D03*
X58900000Y-64925000D03*
X58900000Y-65575000D03*
X58900000Y-66225000D03*
X65100000Y-66225000D03*
X65100000Y-65575000D03*
X65100000Y-64925000D03*
X65100000Y-64275000D03*
X65100000Y-63625000D03*
X65100000Y-62975000D03*
X65100000Y-62325000D03*
X65100000Y-61675000D03*
X65100000Y-61025000D03*
X65100000Y-60375000D03*
X65100000Y-59725000D03*
X65100000Y-59075000D03*
X65100000Y-58425000D03*
X65100000Y-57775000D03*
%TD*%
D26*
%TO.C,U1*%
X10730000Y-47050000D03*
X12000000Y-47050000D03*
X13270000Y-47050000D03*
X13270000Y-48950000D03*
X12000000Y-48950000D03*
X10730000Y-48950000D03*
%TD*%
D11*
%TO.C,C3*%
X11050000Y-34000000D03*
X12950000Y-34000000D03*
%TD*%
D26*
%TO.C,U2*%
X10730000Y-21050000D03*
X12000000Y-21050000D03*
X13270000Y-21050000D03*
X13270000Y-22950000D03*
X12000000Y-22950000D03*
X10730000Y-22950000D03*
%TD*%
D11*
%TO.C,R6*%
X71050000Y-60000000D03*
X72950000Y-60000000D03*
%TD*%
D27*
%TO.C,Q1*%
X19300000Y-74095000D03*
X19300000Y-75365000D03*
X19300000Y-76635000D03*
X19300000Y-77905000D03*
X24700000Y-77905000D03*
X24700000Y-76635000D03*
X24700000Y-75365000D03*
X24700000Y-74095000D03*
%TD*%
D13*
%TO.C,H3*%
X3500000Y-96500000D03*
%TD*%
D17*
%TO.C,J_HX711*%
X78000000Y-80000000D03*
D18*
X80500000Y-80000000D03*
X83000000Y-80000000D03*
X85500000Y-80000000D03*
%TD*%
D17*
%TO.C,J_IBT*%
X100000000Y-52000000D03*
D18*
X100000000Y-54540000D03*
X100000000Y-57080000D03*
X100000000Y-59620000D03*
X100000000Y-62160000D03*
X100000000Y-64700000D03*
X100000000Y-67240000D03*
X100000000Y-69780000D03*
%TD*%
D11*
%TO.C,C7*%
X53050000Y-62000000D03*
X54950000Y-62000000D03*
%TD*%
%TO.C,R5*%
X61050000Y-80000000D03*
X62950000Y-80000000D03*
%TD*%
D19*
%TO.C,L1*%
X19600000Y-48000000D03*
X24400000Y-48000000D03*
%TD*%
D10*
%TO.C,TP1*%
X32000000Y-88000000D03*
%TD*%
M02*
